<svg xmlns="http://www.w3.org/2000/svg" xmlns:xlink="http://www.w3.org/1999/xlink" width="192" height="68.833" viewBox="0 0 192 68.833">
  <defs>
    <filter id="Path_2435" x="0" y="0" width="192" height="68.833" filterUnits="userSpaceOnUse">
      <feOffset dy="3" input="SourceAlpha"/>
      <feGaussianBlur stdDeviation="3" result="blur"/>
      <feFlood flood-opacity="0.161"/>
      <feComposite operator="in" in2="blur"/>
      <feComposite in="SourceGraphic"/>
    </filter>
  </defs>
  <g id="Group_7272" data-name="Group 7272" transform="translate(-927.48 -1443)">
    <g id="Group_7271" data-name="Group 7271">
      <g id="Submit_Button" data-name="Submit Button" transform="translate(-7.209 -637.413)">
        <g id="DownloadButton" transform="translate(817.209 2086.413)">
          <g transform="matrix(1, 0, 0, 1, 117.48, -6)" filter="url(#Path_2435)">
            <path id="Path_2435-2" data-name="Path 2435" d="M25.417,0H148.583a25.417,25.417,0,1,1,0,50.833H25.417A25.417,25.417,0,0,1,25.417,0Z" transform="translate(9 6)" fill="#730732"/>
          </g>
          <circle id="Ellipse_1" data-name="Ellipse 1" cx="25.5" cy="25.5" r="25.5" transform="translate(250 0)" fill="#e50e63"/>
          <text id="Logout" transform="translate(193.739 31.779)" fill="#fff" font-size="18" font-family="HurmeGeometricSans4-Bold, 'Hurme Geometric Sans \34 '" font-weight="700" letter-spacing="0.075em"><tspan x="-33.012" y="0">Logout</tspan></text>
          <path id="Path_1925" data-name="Path 1925" d="M31.607,32.878a.988.988,0,0,0-.988.988v6.114a.989.989,0,0,1-.988.988H15.8a.989.989,0,0,1-.988-.988V19.3a.989.989,0,0,1,.988-.988H29.631a.989.989,0,0,1,.988.988v6.114a.988.988,0,1,0,1.976,0V19.3a2.967,2.967,0,0,0-2.964-2.964H15.8A2.967,2.967,0,0,0,12.834,19.3V39.981A2.967,2.967,0,0,0,15.8,42.945H29.631a2.967,2.967,0,0,0,2.964-2.964V33.866A.988.988,0,0,0,31.607,32.878Zm10.6-3.247a1.016,1.016,0,0,0-.019-.185c-.007-.033-.019-.064-.028-.1s-.015-.058-.027-.087a.99.99,0,0,0-.059-.113c-.011-.019-.019-.039-.031-.057a1,1,0,0,0-.127-.155L36.24,23.258a.988.988,0,0,0-1.4,1.4l3.994,4H21.067a.988.988,0,0,0,0,1.976H38.838l-4,4a.988.988,0,0,0,1.4,1.4l5.682-5.682c.006-.006.009-.012.015-.018a.963.963,0,0,0,.108-.132c.018-.027.03-.056.045-.084s.033-.056.045-.086a1.03,1.03,0,0,0,.033-.106c.008-.026.018-.051.023-.079a.993.993,0,0,0,.02-.194A.043.043,0,0,1,42.21,29.631Z" transform="translate(250.387 -4.035)" fill="#730732"/>
        </g>
      </g>
    </g>
  </g>
</svg>
