<?xml version="1.0" encoding="utf-8"?>
<!-- Generator: Adobe Illustrator 26.0.3, SVG Export Plug-In . SVG Version: 6.00 Build 0)  -->
<svg version="1.1" id="Layer_1" xmlns="http://www.w3.org/2000/svg" xmlns:xlink="http://www.w3.org/1999/xlink" x="0px" y="0px"
	 width="159px" height="50px" viewBox="0 0 159 50" style="enable-background:new 0 0 159 50;" xml:space="preserve">
<style type="text/css">
	.st0{fill:#E50E63;}
	.st1{fill:#FFFFFF;}
</style>
<path class="st0" d="M0,25c0-0.82,0.04-1.64,0.12-2.45s0.2-1.62,0.36-2.43s0.36-1.6,0.6-2.38c0.24-0.78,0.51-1.55,0.83-2.31
	s0.66-1.5,1.05-2.22s0.81-1.42,1.26-2.1c0.45-0.68,0.94-1.34,1.46-1.97C6.19,8.51,6.74,7.9,7.32,7.32C7.9,6.74,8.51,6.19,9.14,5.67
	s1.29-1.01,1.97-1.46c0.68-0.45,1.38-0.88,2.1-1.26s1.46-0.74,2.22-1.05c0.76-0.31,1.53-0.59,2.31-0.83
	c0.78-0.24,1.58-0.44,2.38-0.6c0.8-0.16,1.61-0.28,2.43-0.36C23.36,0.04,24.18,0,25,0h109c0.82,0,1.64,0.04,2.45,0.12
	s1.62,0.2,2.43,0.36c0.8,0.16,1.6,0.36,2.38,0.6c0.78,0.24,1.55,0.51,2.31,0.83c0.76,0.31,1.5,0.66,2.22,1.05s1.42,0.81,2.1,1.26
	s1.34,0.94,1.97,1.46s1.24,1.07,1.82,1.65c0.58,0.58,1.13,1.18,1.65,1.82c0.52,0.63,1.01,1.29,1.46,1.97
	c0.45,0.68,0.88,1.38,1.26,2.1c0.39,0.72,0.74,1.46,1.05,2.22s0.59,1.53,0.83,2.31c0.24,0.78,0.44,1.58,0.6,2.38
	c0.16,0.8,0.28,1.61,0.36,2.43c0.08,0.81,0.12,1.63,0.12,2.45c0,0.82-0.04,1.64-0.12,2.45c-0.08,0.81-0.2,1.62-0.36,2.43
	c-0.16,0.8-0.36,1.6-0.6,2.38c-0.24,0.78-0.51,1.55-0.83,2.31c-0.31,0.76-0.66,1.5-1.05,2.22c-0.39,0.72-0.81,1.42-1.26,2.1
	c-0.45,0.68-0.94,1.34-1.46,1.97s-1.07,1.24-1.65,1.82c-0.58,0.58-1.18,1.13-1.82,1.65s-1.29,1.01-1.97,1.46s-1.38,0.88-2.1,1.26
	c-0.72,0.39-1.46,0.74-2.22,1.05c-0.76,0.31-1.53,0.59-2.31,0.83c-0.78,0.24-1.58,0.44-2.38,0.6c-0.8,0.16-1.61,0.28-2.43,0.36
	S134.82,50,134,50H25c-0.82,0-1.64-0.04-2.45-0.12c-0.81-0.08-1.62-0.2-2.43-0.36c-0.8-0.16-1.6-0.36-2.38-0.6
	c-0.78-0.24-1.55-0.51-2.31-0.83c-0.76-0.31-1.5-0.66-2.22-1.05c-0.72-0.39-1.42-0.81-2.1-1.26c-0.68-0.45-1.34-0.94-1.97-1.46
	s-1.24-1.07-1.82-1.65c-0.58-0.58-1.13-1.18-1.65-1.82s-1.01-1.29-1.46-1.97c-0.45-0.68-0.88-1.38-1.26-2.1
	c-0.39-0.72-0.74-1.46-1.05-2.22c-0.31-0.76-0.59-1.53-0.83-2.31c-0.24-0.78-0.44-1.58-0.6-2.38c-0.16-0.8-0.28-1.61-0.36-2.43
	S0,25.82,0,25z"/>
<path class="st1" d="M32.61,24.89h2.1c1.74,0,2.96,0.4,3.65,1.18c0.71,0.78,1.07,1.87,1.07,3.23c0,2.69-1.26,4.35-4.7,4.35h-2.12
	V24.89z M34.94,36.59c2.5,0,4.41-0.65,5.73-1.97c1.34-1.32,2.02-3.11,2.02-5.31s-0.67-3.97-2.04-5.31
	c-1.34-1.36-3.26-2.04-5.73-2.04h-5.54v14.64H34.94z"/>
<path class="st1" d="M47.2,30.08c0.08-0.99,1.2-1.76,2.56-1.76c1.26,0,2.29,0.78,2.29,1.76H47.2z M44.03,31.36
	c0,1.66,0.52,2.98,1.6,3.99c1.07,0.99,2.46,1.49,4.2,1.49c1.78,0,3.32-0.65,4.56-1.93l-1.83-1.74c-0.73,0.69-1.6,1.03-2.58,1.03
	c-1.66,0-2.75-0.82-2.81-2.08h8c0.02-0.32,0.04-0.65,0.04-1.01c0-1.53-0.5-2.79-1.51-3.82c-1.01-1.03-2.31-1.55-3.93-1.55
	c-1.66,0-3.04,0.5-4.12,1.53c-1.07,1.01-1.62,2.35-1.62,4.01V31.36z"/>
<path class="st1" d="M56.69,33.15c0,2.48,1.2,3.72,3.61,3.72c0.63,0,1.13-0.04,1.49-0.15v-2.77c-0.21,0.06-0.46,0.08-0.76,0.08
	c-0.86,0-1.22-0.42-1.22-1.37V21.95h-3.13V33.15z"/>
<path class="st1" d="M65.68,30.08c0.08-0.99,1.2-1.76,2.56-1.76c1.26,0,2.29,0.78,2.29,1.76H65.68z M62.51,31.36
	c0,1.66,0.52,2.98,1.6,3.99c1.07,0.99,2.46,1.49,4.2,1.49c1.79,0,3.32-0.65,4.56-1.93l-1.83-1.74c-0.74,0.69-1.6,1.03-2.58,1.03
	c-1.66,0-2.75-0.82-2.81-2.08h8c0.02-0.32,0.04-0.65,0.04-1.01c0-1.53-0.5-2.79-1.51-3.82c-1.01-1.03-2.31-1.55-3.93-1.55
	c-1.66,0-3.05,0.5-4.12,1.53c-1.07,1.01-1.62,2.35-1.62,4.01V31.36z"/>
<path class="st1" d="M75.85,33.08c0,2.52,1.22,3.78,3.65,3.78c0.61,0,1.11-0.04,1.53-0.15v-2.77c-0.36,0.06-0.63,0.08-0.8,0.08
	c-0.95,0-1.34-0.4-1.34-1.41v-3.78h2.35v-2.83h-2.35v-4.05h-3.05v4.05h-1.39v2.83h1.39V33.08z"/>
<path class="st1" d="M85.32,30.08c0.08-0.99,1.2-1.76,2.56-1.76c1.26,0,2.29,0.78,2.29,1.76H85.32z M82.15,31.36
	c0,1.66,0.53,2.98,1.6,3.99c1.07,0.99,2.46,1.49,4.2,1.49c1.78,0,3.32-0.65,4.56-1.93l-1.83-1.74c-0.74,0.69-1.6,1.03-2.58,1.03
	c-1.66,0-2.75-0.82-2.81-2.08h8c0.02-0.32,0.04-0.65,0.04-1.01c0-1.53-0.5-2.79-1.51-3.82c-1.01-1.03-2.31-1.55-3.93-1.55
	c-1.66,0-3.04,0.5-4.12,1.53c-1.07,1.01-1.62,2.35-1.62,4.01V31.36z"/>
<path class="st1" d="M137.72,14.8h-28.9c-0.34,0-0.61-0.28-0.61-0.61c0-0.34,0.28-0.61,0.61-0.61h28.9c0.34,0,0.61,0.28,0.61,0.61
	C138.34,14.53,138.06,14.8,137.72,14.8z"/>
<path class="st1" d="M108.83,13.96c-0.12,0-0.23,0.1-0.23,0.23s0.1,0.23,0.23,0.23h28.9c0.12,0,0.23-0.1,0.23-0.23
	s-0.1-0.23-0.23-0.23H108.83z M137.72,15.19h-28.9c-0.55,0-1-0.45-1-1s0.45-1,1-1h28.9c0.55,0,1,0.45,1,1S138.28,15.19,137.72,15.19
	z"/>
<path class="st1" d="M119.34,13.57h7.26c-0.14-0.69-0.52-1.32-1.07-1.76c-0.55-0.45-1.23-0.69-1.94-0.7h-1.23
	c-0.71,0-1.39,0.25-1.94,0.7C119.86,12.26,119.48,12.88,119.34,13.57z M127.27,14.8h-8.61c-0.34,0-0.61-0.28-0.61-0.61
	c0-1.14,0.45-2.24,1.26-3.04c0.81-0.81,1.9-1.26,3.04-1.26h1.23c1.14,0,2.24,0.45,3.04,1.26c0.81,0.81,1.26,1.9,1.26,3.04
	c0,0.16-0.06,0.32-0.18,0.43C127.59,14.74,127.43,14.8,127.27,14.8z"/>
<path class="st1" d="M119.86,13.19h6.21c-0.17-0.42-0.44-0.79-0.79-1.07c-0.48-0.39-1.08-0.61-1.7-0.61h-1.23
	c-0.62,0-1.22,0.22-1.7,0.61C120.3,12.4,120.03,12.77,119.86,13.19z M127.07,13.96h-8.21l0.1-0.47c0.16-0.78,0.59-1.48,1.2-1.99
	c0.62-0.5,1.39-0.78,2.19-0.78h1.23c0.8,0,1.57,0.28,2.19,0.78c0.62,0.5,1.04,1.21,1.2,1.99L127.07,13.96z M122.35,10.27
	c-1.05,0-2.03,0.41-2.77,1.15c-0.74,0.74-1.15,1.72-1.15,2.77c0,0.12,0.1,0.23,0.23,0.23h8.61c0.06,0,0.12-0.02,0.16-0.07
	c0.04-0.04,0.07-0.1,0.07-0.16c0-1.05-0.41-2.03-1.15-2.77c-0.74-0.74-1.72-1.15-2.77-1.15H122.35z M127.27,15.19h-8.61
	c-0.55,0-1-0.45-1-1c0-1.25,0.49-2.43,1.37-3.32c0.89-0.89,2.06-1.37,3.32-1.37h1.23c1.25,0,2.43,0.49,3.32,1.37
	c0.89,0.89,1.37,2.06,1.37,3.32c0,0.27-0.1,0.52-0.29,0.71C127.79,15.09,127.54,15.19,127.27,15.19z"/>
<path class="st1" d="M122.97,36.94c-0.34,0-0.61-0.28-0.61-0.61V19.11c0-0.34,0.28-0.61,0.61-0.61s0.61,0.28,0.61,0.61v17.22
	c0,0.16-0.06,0.32-0.18,0.43C123.29,36.87,123.13,36.94,122.97,36.94z"/>
<path class="st1" d="M122.97,18.88c-0.12,0-0.23,0.1-0.23,0.23v17.22c0,0.12,0.1,0.23,0.23,0.23c0.06,0,0.12-0.02,0.16-0.07
	c0.04-0.04,0.07-0.1,0.07-0.16V19.11C123.19,18.98,123.09,18.88,122.97,18.88z M122.97,37.33c-0.55,0-1-0.45-1-1V19.11
	c0-0.55,0.45-1,1-1s1,0.45,1,1v17.22c0,0.26-0.11,0.52-0.29,0.71C123.49,37.22,123.23,37.33,122.97,37.33z"/>
<path class="st1" d="M127.89,36.94c-0.33-0.03-0.59-0.32-0.57-0.65l1.23-17.22c0.03-0.33,0.32-0.58,0.65-0.57
	c0.33,0.03,0.59,0.32,0.57,0.65l-1.23,17.22C128.51,36.71,128.22,36.96,127.89,36.94z"/>
<path class="st1" d="M127.92,36.55C127.92,36.55,127.92,36.55,127.92,36.55c0.13,0,0.22-0.09,0.23-0.21l1.23-17.21
	c0.01-0.12-0.08-0.22-0.2-0.24l-0.01,0c-0.12,0-0.22,0.09-0.24,0.21l-1.23,17.21C127.7,36.43,127.79,36.54,127.92,36.55
	C127.92,36.55,127.92,36.55,127.92,36.55z M127.92,37.33c-0.02,0-0.04,0-0.06,0c-0.55-0.04-0.96-0.52-0.93-1.06l1.23-17.23
	c0.05-0.54,0.51-0.94,1.06-0.92l0.01,0c0.54,0.04,0.96,0.52,0.92,1.06l-1.23,17.22C128.88,36.92,128.44,37.33,127.92,37.33z"/>
<path class="st1" d="M118.05,36.94c-0.32,0-0.59-0.25-0.61-0.57l-1.23-17.22c-0.02-0.34,0.23-0.63,0.57-0.65
	c0.33-0.01,0.62,0.23,0.65,0.57l1.23,17.22c0.02,0.34-0.23,0.63-0.57,0.65H118.05z"/>
<path class="st1" d="M118.1,37.33h-0.05l0-0.39l0-0.39h0.02c0.12-0.02,0.2-0.12,0.2-0.24l-1.23-17.21
	c-0.01-0.12-0.11-0.21-0.24-0.21l-0.01,0c-0.12,0.01-0.21,0.12-0.2,0.24l1.23,17.21c0.01,0.11,0.11,0.21,0.23,0.21l0,0.78
	c-0.52,0-0.96-0.41-1-0.92l-1.23-17.22c-0.03-0.55,0.38-1.02,0.92-1.07l0.01,0c0.54-0.02,1,0.38,1.06,0.92l0,0.01l1.23,17.22
	c0.03,0.55-0.38,1.02-0.92,1.07L118.1,37.33z"/>
<path class="st1" d="M127.25,41.24h-8.61c-1.34,0-2.64-0.5-3.65-1.38c-1.01-0.89-1.66-2.11-1.83-3.45l-2.52-19.68
	c-0.04-0.34,0.19-0.64,0.53-0.69c0.33-0.04,0.64,0.2,0.69,0.53l2.52,19.68c0.14,1.04,0.64,1.99,1.43,2.68
	c0.78,0.69,1.79,1.07,2.84,1.07h8.61c1.04,0,2.05-0.38,2.83-1.07c0.78-0.69,1.29-1.64,1.43-2.67l2.52-19.68
	c0.05-0.33,0.35-0.57,0.69-0.53c0.34,0.04,0.57,0.35,0.53,0.69l-2.52,19.68c-0.18,1.33-0.83,2.55-1.84,3.44
	C129.89,40.75,128.59,41.24,127.25,41.24L127.25,41.24z"/>
<path class="st1" d="M111.21,16.43c-0.12,0.02-0.21,0.13-0.19,0.25l2.52,19.68c0.16,1.24,0.77,2.38,1.7,3.21
	c0.94,0.83,2.14,1.28,3.4,1.29l8.61,0c1.25,0,2.45-0.46,3.39-1.28c0.94-0.82,1.54-1.96,1.71-3.2l2.52-19.67
	c0.02-0.12-0.07-0.24-0.19-0.25c-0.12-0.01-0.24,0.08-0.26,0.2l-2.52,19.67c-0.15,1.13-0.71,2.16-1.56,2.91
	c-0.86,0.75-1.95,1.16-3.09,1.17h-8.61c-1.14,0-2.24-0.42-3.09-1.17c-0.86-0.75-1.41-1.79-1.56-2.92l-2.52-19.67
	C111.45,16.51,111.33,16.42,111.21,16.43z M127.25,41.63l-8.61,0c-1.44,0-2.83-0.53-3.91-1.48c-1.08-0.95-1.78-2.26-1.96-3.69
	l-2.52-19.68c-0.07-0.55,0.32-1.05,0.86-1.12l0.01,0c0.04,0,0.07-0.01,0.11-0.01c0.5,0,0.93,0.36,1,0.86l0,0.01l2.52,19.68
	c0.12,0.94,0.59,1.81,1.3,2.43c0.71,0.63,1.63,0.98,2.58,0.98h8.61c0.95,0,1.86-0.35,2.58-0.97c0.71-0.63,1.18-1.49,1.3-2.43
	l2.52-19.68c0.08-0.5,0.5-0.86,1-0.86c0.04,0,0.07,0,0.11,0.01l0.01,0c0.55,0.07,0.93,0.58,0.86,1.12l-2.52,19.67
	c-0.19,1.43-0.89,2.73-1.97,3.68C130.07,41.1,128.68,41.63,127.25,41.63z"/>
</svg>
