<svg xmlns="http://www.w3.org/2000/svg" width="159" height="50" viewBox="0 0 159 50">
  <g id="Group_1856" data-name="Group 1856" transform="translate(-1434 -635)">
    <g id="Group_1855" data-name="Group 1855">
      <rect id="Rectangle_1965" data-name="Rectangle 1965" width="159" height="50" rx="25" transform="translate(1434 635)" fill="#e50e63"/>
      <text id="Delete" transform="translate(1461.945 648.591)" fill="#fff" font-size="21" font-family="HurmeGeometricSans4-Bold, 'Hurme Geometric Sans \34 '" font-weight="700"><tspan x="0" y="23">Delete</tspan></text>
    </g>
    <g id="noun-delete-1053853" transform="translate(1541.822 644.496)">
      <path id="Path_1999" data-name="Path 1999" d="M165.133,110.61h-28.9a.615.615,0,1,1,0-1.23h28.9a.615.615,0,0,1,0,1.23Z" transform="translate(-135.232 -105.303)" fill="#fff"/>
      <path id="Path_1999_-_Outline" data-name="Path 1999 - Outline" d="M165.2,111.061H136.3a1,1,0,1,1,0-2.006h28.9a1,1,0,1,1,0,2.006Zm-28.9-1.23a.227.227,0,1,0,0,.453h28.9a.227.227,0,0,0,0-.453Z" transform="translate(-135.295 -105.366)" fill="#fff"/>
      <path id="Path_2000" data-name="Path 2000" d="M284.853,61.8h-8.608a.615.615,0,0,1-.615-.615,4.3,4.3,0,0,1,4.3-4.3h1.23a4.3,4.3,0,0,1,4.3,4.3.615.615,0,0,1-.615.615Zm-7.932-1.23h7.255a3.086,3.086,0,0,0-3.013-2.459h-1.23a3.086,3.086,0,0,0-3.013,2.459Z" transform="translate(-265.404 -56.492)" fill="#fff"/>
      <path id="Path_2000_-_Outline" data-name="Path 2000 - Outline" d="M284.916,62.25h-8.608a1,1,0,0,1-1-1A4.692,4.692,0,0,1,280,56.555h1.23a4.692,4.692,0,0,1,4.692,4.692,1,1,0,0,1-1,1ZM280,57.331a3.916,3.916,0,0,0-3.916,3.916.227.227,0,0,0,.227.227h8.608a.226.226,0,0,0,.227-.227,3.916,3.916,0,0,0-3.916-3.916Zm4.719,3.689h-8.209l.1-.467A3.474,3.474,0,0,1,280,57.785h1.231a3.475,3.475,0,0,1,3.393,2.769Zm-7.21-.776h6.21a2.7,2.7,0,0,0-2.491-1.683H280a2.7,2.7,0,0,0-2.492,1.683Z" transform="translate(-265.467 -56.555)" fill="#fff"/>
      <path id="Path_2001" data-name="Path 2001" d="M337.485,197.825a.615.615,0,0,1-.615-.615V179.995a.615.615,0,1,1,1.23,0v17.216a.615.615,0,0,1-.615.615Z" transform="translate(-322.34 -170.384)" fill="#fff"/>
      <path id="Path_2001_-_Outline" data-name="Path 2001 - Outline" d="M337.548,198.277a1,1,0,0,1-1-1V180.058a1,1,0,1,1,2.006,0v17.216a1.01,1.01,0,0,1-.294.709A1,1,0,0,1,337.548,198.277Zm0-18.445a.227.227,0,0,0-.227.227v17.216a.227.227,0,1,0,.453,0V180.058A.227.227,0,0,0,337.548,179.831Z" transform="translate(-322.404 -170.447)" fill="#fff"/>
      <path id="Path_2002" data-name="Path 2002" d="M408.119,197.981a.615.615,0,0,1-.566-.652l1.23-17.216a.627.627,0,0,1,.652-.566.614.614,0,0,1,.565.652l-1.23,17.216A.615.615,0,0,1,408.119,197.981Z" transform="translate(-388.055 -170.539)" fill="#fff"/>
      <path id="Path_2002_-_Outline" data-name="Path 2002 - Outline" d="M408.221,198.433l-.064,0a1.008,1.008,0,0,1-.929-1.064l1.231-17.229a1.013,1.013,0,0,1,1.055-.916h.013a1.007,1.007,0,0,1,.923,1.063l-1.23,17.219A1.008,1.008,0,0,1,408.221,198.433Zm-.009-.777h.009a.227.227,0,0,0,.225-.209l1.23-17.213a.226.226,0,0,0-.2-.236h-.005a.238.238,0,0,0-.237.212L408,197.42a.227.227,0,0,0,.209.237Z" transform="translate(-388.118 -170.602)" fill="#fff"/>
      <path id="Path_2003" data-name="Path 2003" d="M251.2,197.981a.615.615,0,0,1-.615-.566l-1.23-17.216a.615.615,0,0,1,.566-.652.627.627,0,0,1,.652.566l1.23,17.216a.615.615,0,0,1-.566.652Z" transform="translate(-240.973 -170.539)" fill="#fff"/>
      <path id="Path_2003_-_Outline" data-name="Path 2003 - Outline" d="M251.313,198.432h-.052l0-.388v-.388h.019a.227.227,0,0,0,.2-.239l-1.229-17.206a.238.238,0,0,0-.237-.212h-.005a.227.227,0,0,0-.2.239l1.229,17.213a.227.227,0,0,0,.225.205v.776a1.008,1.008,0,0,1-1-.923l-1.23-17.219a1.008,1.008,0,0,1,.923-1.066h.013a1.012,1.012,0,0,1,1.055.916v.01l1.23,17.216a1.008,1.008,0,0,1-.923,1.066Z" transform="translate(-241.036 -170.602)" fill="#fff"/>
      <path id="Path_2004" data-name="Path 2004" d="M186.642,169.692h-8.608a5.546,5.546,0,0,1-5.484-4.833l-2.521-19.675a.615.615,0,0,1,.529-.689.627.627,0,0,1,.689.529l2.521,19.675a4.317,4.317,0,0,0,4.267,3.751h8.608a4.316,4.316,0,0,0,4.267-3.738l2.521-19.675a.627.627,0,0,1,.689-.529.614.614,0,0,1,.529.688l-2.521,19.675a5.546,5.546,0,0,1-5.485,4.821Z" transform="translate(-167.219 -137.947)" fill="#fff"/>
      <path id="Path_2004_-_Outline" data-name="Path 2004 - Outline" d="M186.707,170.143H178.1a5.934,5.934,0,0,1-5.869-5.171L169.707,145.3a1,1,0,0,1,.863-1.123h.008a1.023,1.023,0,0,1,.112-.006,1.009,1.009,0,0,1,1,.862v.009l2.521,19.675a3.928,3.928,0,0,0,3.883,3.412h8.607a3.928,3.928,0,0,0,3.882-3.4l2.522-19.682a1.009,1.009,0,0,1,1-.862,1.027,1.027,0,0,1,.112.006h.008a1,1,0,0,1,.863,1.123l-2.521,19.674a5.934,5.934,0,0,1-5.869,5.159Zm-16.039-25.2a.227.227,0,0,0-.19.253L173,164.873a5.157,5.157,0,0,0,5.1,4.494h8.607a5.158,5.158,0,0,0,5.1-4.483l2.521-19.674a.227.227,0,0,0-.19-.254.24.24,0,0,0-.258.2l-2.52,19.669a4.7,4.7,0,0,1-4.651,4.077H178.1a4.7,4.7,0,0,1-4.652-4.088l-2.52-19.671A.24.24,0,0,0,170.668,144.944Z" transform="translate(-167.282 -138.011)" fill="#fff"/>
    </g>
  </g>
</svg>
