<?xml version="1.0" encoding="utf-8"?>
<!-- Generator: Adobe Illustrator 26.0.3, SVG Export Plug-In . SVG Version: 6.00 Build 0)  -->
<svg version="1.1" id="Layer_1" xmlns="http://www.w3.org/2000/svg" xmlns:xlink="http://www.w3.org/1999/xlink" x="0px" y="0px"
	 width="159px" height="50px" viewBox="0 0 159 50" style="enable-background:new 0 0 159 50;" xml:space="preserve">
<style type="text/css">
	.st0{fill:#F15D2A;}
	.st1{fill:#FFFFFF;}
	.st2{fill:none;stroke:#FFFFFF;stroke-width:0.35;}
</style>
<path class="st0" d="M0,25c0-0.82,0.04-1.64,0.12-2.45s0.2-1.62,0.36-2.43s0.36-1.6,0.6-2.38c0.24-0.78,0.51-1.55,0.83-2.31
	s0.66-1.5,1.05-2.22s0.81-1.42,1.26-2.1c0.45-0.68,0.94-1.34,1.46-1.97C6.19,8.51,6.74,7.9,7.32,7.32C7.9,6.74,8.51,6.19,9.14,5.67
	s1.29-1.01,1.97-1.46c0.68-0.45,1.38-0.88,2.1-1.26s1.46-0.74,2.22-1.05c0.76-0.31,1.53-0.59,2.31-0.83
	c0.78-0.24,1.58-0.44,2.38-0.6c0.8-0.16,1.61-0.28,2.43-0.36C23.36,0.04,24.18,0,25,0h109c0.82,0,1.64,0.04,2.45,0.12
	s1.62,0.2,2.43,0.36c0.8,0.16,1.6,0.36,2.38,0.6c0.78,0.24,1.55,0.51,2.31,0.83c0.76,0.31,1.5,0.66,2.22,1.05s1.42,0.81,2.1,1.26
	s1.34,0.94,1.97,1.46s1.24,1.07,1.82,1.65c0.58,0.58,1.13,1.18,1.65,1.82c0.52,0.63,1.01,1.29,1.46,1.97
	c0.45,0.68,0.88,1.38,1.26,2.1c0.39,0.72,0.74,1.46,1.05,2.22s0.59,1.53,0.83,2.31c0.24,0.78,0.44,1.58,0.6,2.38
	c0.16,0.8,0.28,1.61,0.36,2.43c0.08,0.81,0.12,1.63,0.12,2.45c0,0.82-0.04,1.64-0.12,2.45c-0.08,0.81-0.2,1.62-0.36,2.43
	c-0.16,0.8-0.36,1.6-0.6,2.38c-0.24,0.78-0.51,1.55-0.83,2.31c-0.31,0.76-0.66,1.5-1.05,2.22c-0.39,0.72-0.81,1.42-1.26,2.1
	c-0.45,0.68-0.94,1.34-1.46,1.97s-1.07,1.24-1.65,1.82c-0.58,0.58-1.18,1.13-1.82,1.65s-1.29,1.01-1.97,1.46s-1.38,0.88-2.1,1.26
	c-0.72,0.39-1.46,0.74-2.22,1.05c-0.76,0.31-1.53,0.59-2.31,0.83c-0.78,0.24-1.58,0.44-2.38,0.6c-0.8,0.16-1.61,0.28-2.43,0.36
	S134.82,50,134,50H25c-0.82,0-1.64-0.04-2.45-0.12c-0.81-0.08-1.62-0.2-2.43-0.36c-0.8-0.16-1.6-0.36-2.38-0.6
	c-0.78-0.24-1.55-0.51-2.31-0.83c-0.76-0.31-1.5-0.66-2.22-1.05c-0.72-0.39-1.42-0.81-2.1-1.26c-0.68-0.45-1.34-0.94-1.97-1.46
	s-1.24-1.07-1.82-1.65c-0.58-0.58-1.13-1.18-1.65-1.82s-1.01-1.29-1.46-1.97c-0.45-0.68-0.88-1.38-1.26-2.1
	c-0.39-0.72-0.74-1.46-1.05-2.22c-0.31-0.76-0.59-1.53-0.83-2.31c-0.24-0.78-0.44-1.58-0.6-2.38c-0.16-0.8-0.28-1.61-0.36-2.43
	S0,25.82,0,25z"/>
<polygon class="st1" points="51.52,36.59 51.52,33.65 44.61,33.65 44.61,30.52 50.93,30.52 50.93,27.64 44.61,27.64 44.61,24.89 
	51.37,24.89 51.37,21.95 41.37,21.95 41.37,36.59 "/>
<path class="st1" d="M58.47,33.94c-0.76,0-1.39-0.25-1.91-0.76c-0.52-0.53-0.78-1.15-0.78-1.89s0.25-1.37,0.78-1.87
	c0.53-0.52,1.16-0.78,1.91-0.78c0.78,0,1.43,0.25,1.95,0.78c0.55,0.5,0.82,1.13,0.82,1.87s-0.27,1.36-0.82,1.89
	C59.9,33.69,59.24,33.94,58.47,33.94z M52.65,31.3c0,1.55,0.5,2.86,1.49,3.93c1.01,1.05,2.27,1.57,3.76,1.57
	c1.66,0,2.81-0.5,3.51-1.53c0.15,0.44,0.46,0.82,0.94,1.13c0.44,0.25,1.03,0.38,1.72,0.38c0.61,0,1.07-0.06,1.41-0.17v-2.6
	c-0.19,0.02-0.38,0.04-0.53,0.04c-0.57,0-0.78-0.34-0.78-1.18V21.95h-3.13v5.44c-0.32-0.92-1.55-1.57-3.15-1.57
	c-1.49,0-2.75,0.52-3.76,1.6C53.15,28.46,52.65,29.77,52.65,31.3z"/>
<path class="st1" d="M66.49,23.34c0,0.99,0.8,1.76,1.78,1.76c0.99,0,1.79-0.78,1.79-1.76c0-1.01-0.8-1.78-1.79-1.78
	C67.29,21.55,66.49,22.33,66.49,23.34z M66.72,33.8c0,1.99,0.92,2.98,2.77,2.98c0.69,0,1.18-0.06,1.45-0.17v-2.67
	c-0.06,0.02-0.19,0.04-0.38,0.04c-0.52,0-0.71-0.34-0.71-1.11v-6.87h-3.13V33.8z"/>
<path class="st1" d="M72.71,33.08c0,2.52,1.22,3.78,3.65,3.78c0.61,0,1.11-0.04,1.53-0.15v-2.77c-0.36,0.06-0.63,0.08-0.8,0.08
	c-0.95,0-1.34-0.4-1.34-1.41v-3.78h2.35v-2.83h-2.35v-4.05h-3.05v4.05h-1.39v2.83h1.39V33.08z"/>
<path class="st1" d="M118.32,24.68l-0.54,3.81l3.81-0.55l12.91-12.91l-3.27-3.27L118.32,24.68z M116,30.27
	c-0.21-0.21-0.31-0.51-0.26-0.8l0.77-5.37c0.03-0.21,0.12-0.39,0.27-0.53l13.79-13.8c0.18-0.18,0.42-0.28,0.67-0.28
	s0.49,0.1,0.67,0.28l4.6,4.6c0.18,0.18,0.28,0.41,0.28,0.67s-0.1,0.49-0.28,0.67L122.7,29.5c-0.14,0.14-0.33,0.24-0.53,0.26
	l-5.37,0.77c-0.05,0-0.09,0.01-0.13,0.01C116.42,30.54,116.18,30.44,116,30.27z M110.54,40.5c-2.63,0-4.78-2.14-4.78-4.77V18.87
	c0-2.63,2.14-4.77,4.78-4.77h11.67v1.88h-11.67c-1.59,0-2.89,1.3-2.89,2.89v16.86c0,1.59,1.29,2.89,2.89,2.89h16.86
	c1.59,0,2.89-1.3,2.89-2.89V24.06h1.88v11.67c0,2.63-2.14,4.77-4.78,4.77H110.54z"/>
<path class="st2" d="M118.32,24.68l-0.54,3.81l3.81-0.55l12.91-12.91l-3.27-3.27L118.32,24.68z M116,30.27
	c-0.21-0.21-0.31-0.51-0.26-0.8l0.77-5.37c0.03-0.21,0.12-0.39,0.27-0.53l13.79-13.8c0.18-0.18,0.42-0.28,0.67-0.28
	s0.49,0.1,0.67,0.28l4.6,4.6c0.18,0.18,0.28,0.41,0.28,0.67s-0.1,0.49-0.28,0.67L122.7,29.5c-0.14,0.14-0.33,0.24-0.53,0.26
	l-5.37,0.77c-0.05,0-0.09,0.01-0.13,0.01C116.42,30.54,116.18,30.44,116,30.27z M110.54,40.5c-2.63,0-4.78-2.14-4.78-4.77V18.87
	c0-2.63,2.14-4.77,4.78-4.77h11.67v1.88h-11.67c-1.59,0-2.89,1.3-2.89,2.89v16.86c0,1.59,1.29,2.89,2.89,2.89h16.86
	c1.59,0,2.89-1.3,2.89-2.89V24.06h1.88v11.67c0,2.63-2.14,4.77-4.78,4.77H110.54z"/>
</svg>
