<svg xmlns="http://www.w3.org/2000/svg" width="159" height="50" viewBox="0 0 159 50">
  <g id="Group_1758" data-name="Group 1758" transform="translate(-1255 -635)">
    <rect id="Rectangle_1964" data-name="Rectangle 1964" width="159" height="50" rx="25" transform="translate(1255 635)" fill="#f15d2a"/>
    <text id="Edit" transform="translate(1294.945 648.591)" fill="#fff" font-size="21" font-family="HurmeGeometricSans4-Bold, 'Hurme Geometric Sans \34 '" font-weight="700"><tspan x="0" y="23">Edit</tspan></text>
    <path id="Union_7" data-name="Union 7" d="M-15879.227,31.006a4.778,4.778,0,0,1-4.775-4.772V9.372a4.778,4.778,0,0,1,4.775-4.772h11.668V6.482h-11.668a2.892,2.892,0,0,0-2.89,2.89V26.234a2.892,2.892,0,0,0,2.89,2.89h16.858a2.893,2.893,0,0,0,2.891-2.89V14.562h1.885V26.234a4.78,4.78,0,0,1-4.775,4.772Zm5.462-10.237a.939.939,0,0,1-.264-.8l.766-5.366a.945.945,0,0,1,.267-.534l13.793-13.8a.95.95,0,0,1,.666-.275.95.95,0,0,1,.666.275l4.6,4.6a.927.927,0,0,1,.279.666.934.934,0,0,1-.279.666l-13.793,13.8a.954.954,0,0,1-.529.263l-5.366.769c-.048,0-.092.008-.132.008A.948.948,0,0,1-15873.765,20.769Zm2.319-5.589-.542,3.815,3.812-.546,12.907-12.908-3.269-3.269Z" transform="translate(17244.77 644.496)" fill="#fff" stroke="#fff" stroke-width="0.35"/>
  </g>
</svg>
