<?xml version="1.0" encoding="utf-8"?>
<!-- Generator: Adobe Illustrator 26.0.3, SVG Export Plug-In . SVG Version: 6.00 Build 0)  -->
<svg version="1.1" id="Layer_1" xmlns="http://www.w3.org/2000/svg" xmlns:xlink="http://www.w3.org/1999/xlink" x="0px" y="0px"
	 width="159px" height="50px" viewBox="0 0 159 50" style="enable-background:new 0 0 159 50;" xml:space="preserve">
<style type="text/css">
	.st0{fill:#009E4F;}
	.st1{fill:#FFFFFF;}
	.st2{fill:none;stroke:#FFFFFF;stroke-width:0.5;}
</style>
<path class="st0" d="M25,0h109c13.81,0,25,11.19,25,25s-11.19,25-25,25H25C11.19,50,0,38.81,0,25S11.19,0,25,0z"/>
<path class="st1" d="M128.23,27.56c-0.21-0.2-0.33-0.47-0.33-0.76V10.82c0-0.59,0.49-1.06,1.09-1.06c0.6,0,1.09,0.48,1.09,1.06V26.8
	c0,0.29-0.11,0.56-0.32,0.76c-0.21,0.2-0.48,0.31-0.77,0.31C128.71,27.87,128.44,27.76,128.23,27.56z M128.62,41.86L128.62,41.86
	c-3.33-0.08-6.58-1.21-9.2-3.19c-2.72-2.06-4.66-4.98-5.46-8.22c-0.81-3.24-0.45-6.69,1-9.71c1.46-3.02,3.96-5.51,7.04-7.02
	c0.15-0.07,0.32-0.11,0.49-0.11c0.41,0,0.79,0.22,0.97,0.58c0.13,0.25,0.16,0.54,0.07,0.81c-0.09,0.28-0.29,0.5-0.55,0.63
	c-2.61,1.27-4.74,3.37-5.99,5.91c-1.25,2.54-1.59,5.44-0.97,8.18c0.63,2.74,2.22,5.25,4.46,7.04c2.25,1.8,5.1,2.85,8.03,2.95
	c0.16,0.01,0.32,0.01,0.49,0.01c2.79,0,5.47-0.83,7.75-2.39c2.38-1.64,4.15-4.02,4.98-6.71s0.71-5.61-0.34-8.23
	c-1.06-2.62-3.02-4.86-5.53-6.31c-0.25-0.14-0.43-0.38-0.5-0.66c-0.07-0.28-0.02-0.57,0.13-0.82c0.15-0.24,0.39-0.41,0.67-0.47
	c0.28-0.07,0.57-0.02,0.82,0.12c2.88,1.67,5.15,4.24,6.39,7.24c1.24,3.01,1.43,6.37,0.53,9.49c-0.9,3.12-2.87,5.9-5.55,7.86
	c-1.34,0.98-2.83,1.73-4.42,2.25c-1.59,0.51-3.25,0.78-4.93,0.78H128.62z"/>
<path class="st2" d="M128.23,27.56c-0.21-0.2-0.33-0.47-0.33-0.76V10.82c0-0.59,0.49-1.06,1.09-1.06c0.6,0,1.09,0.48,1.09,1.06V26.8
	c0,0.29-0.11,0.56-0.32,0.76c-0.21,0.2-0.48,0.31-0.77,0.31C128.71,27.87,128.44,27.76,128.23,27.56z M128.62,41.86L128.62,41.86
	c-3.33-0.08-6.58-1.21-9.2-3.19c-2.72-2.06-4.66-4.98-5.46-8.22c-0.81-3.24-0.45-6.69,1-9.71c1.46-3.02,3.96-5.51,7.04-7.02
	c0.15-0.07,0.32-0.11,0.49-0.11c0.41,0,0.79,0.22,0.97,0.58c0.13,0.25,0.16,0.54,0.07,0.81c-0.09,0.28-0.29,0.5-0.55,0.63
	c-2.61,1.27-4.74,3.37-5.99,5.91c-1.25,2.54-1.59,5.44-0.97,8.18c0.63,2.74,2.22,5.25,4.46,7.04c2.25,1.8,5.1,2.85,8.03,2.95
	c0.16,0.01,0.32,0.01,0.49,0.01c2.79,0,5.47-0.83,7.75-2.39c2.38-1.64,4.15-4.02,4.98-6.71s0.71-5.61-0.34-8.23
	c-1.06-2.62-3.02-4.86-5.53-6.31c-0.25-0.14-0.43-0.38-0.5-0.66c-0.07-0.28-0.02-0.57,0.13-0.82c0.15-0.24,0.39-0.41,0.67-0.47
	c0.28-0.07,0.57-0.02,0.82,0.12c2.88,1.67,5.15,4.24,6.39,7.24c1.24,3.01,1.43,6.37,0.53,9.49c-0.9,3.12-2.87,5.9-5.55,7.86
	c-1.34,0.98-2.83,1.73-4.42,2.25c-1.59,0.51-3.25,0.78-4.93,0.78H128.62z"/>
<rect x="28.64" y="21.95" class="st1" width="3.23" height="14.64"/>
<path class="st1" d="M35.06,33.08c0,2.52,1.22,3.78,3.65,3.78c0.61,0,1.11-0.04,1.53-0.15v-2.77c-0.36,0.06-0.63,0.08-0.8,0.08
	c-0.94,0-1.34-0.4-1.34-1.41v-3.78h2.35v-2.83h-2.35v-4.05h-3.05v4.05h-1.39v2.83h1.39V33.08z"/>
<polygon class="st1" points="43.84,27.06 46.53,21.95 43.42,21.95 41.55,27.06 "/>
<path class="st1" d="M44.91,34.99c1.03,1.26,2.56,1.89,4.62,1.89c3.11,0,4.66-1.41,4.66-3.57c0-1.41-0.86-2.41-2.6-3
	c-1.18-0.42-2.06-0.57-2.46-0.74c-0.34-0.15-0.44-0.29-0.44-0.57c0-0.4,0.38-0.67,1.05-0.67c0.9,0,1.66,0.25,2.23,0.78l1.49-2.06
	c-0.94-0.9-2.14-1.37-3.63-1.37c-1.15,0-2.12,0.29-2.92,0.9c-0.8,0.59-1.2,1.43-1.2,2.5c0,1.41,0.82,2.37,2.44,2.94
	c0.31,0.1,0.8,0.25,1.43,0.4c0.63,0.15,1.05,0.29,1.28,0.42s0.36,0.29,0.36,0.5c0,0.57-0.53,0.86-1.6,0.86
	c-1.2,0-2.31-0.46-2.9-1.15L44.91,34.99z"/>
<path class="st1" d="M65.96,29.3c0-1.28,0.44-2.37,1.32-3.28c0.88-0.9,1.97-1.37,3.25-1.37c1.28,0,2.37,0.46,3.26,1.37
	c0.88,0.9,1.32,1.99,1.32,3.28s-0.44,2.39-1.34,3.3c-0.88,0.9-1.95,1.34-3.23,1.34c-1.28,0-2.37-0.44-3.25-1.32
	C66.4,31.72,65.96,30.63,65.96,29.3z M62.72,29.3c0,2.12,0.76,3.93,2.27,5.4c1.53,1.45,3.38,2.18,5.54,2.18
	c2.18,0,4.03-0.74,5.54-2.18c1.51-1.47,2.27-3.28,2.27-5.4s-0.76-3.91-2.29-5.38c-1.51-1.47-3.36-2.2-5.52-2.2
	c-2.16,0-4.01,0.73-5.54,2.2C63.48,25.4,62.72,27.18,62.72,29.3z"/>
<path class="st1" d="M83.26,36.59v-5.94c0-1.24,0.86-2.1,2.04-2.1c1.24,0,1.89,0.76,1.89,1.99v3.15c0,2.02,0.92,3.02,2.79,3.02
	c0.65,0,1.11-0.04,1.36-0.15v-2.65l-0.13,0.02h-0.21c-0.53,0-0.69-0.29-0.69-1.11v-2.67c0-2.75-1.47-4.39-4.01-4.39
	c-1.43,0-2.6,0.63-3.04,1.55v-1.32h-3.13v10.58H83.26z"/>
</svg>
