<?xml version="1.0" encoding="utf-8"?>
<!-- Generator: Adobe Illustrator 26.0.3, SVG Export Plug-In . SVG Version: 6.00 Build 0)  -->
<svg version="1.1" id="Layer_1" xmlns="http://www.w3.org/2000/svg" xmlns:xlink="http://www.w3.org/1999/xlink" x="0px" y="0px"
	 width="159px" height="50px" viewBox="0 0 159 50" style="enable-background:new 0 0 159 50;" xml:space="preserve">
<style type="text/css">
	.st0{fill:#C20430;}
	.st1{fill:#FFFFFF;}
	.st2{fill:none;stroke:#FFFFFF;stroke-width:0.5;}
</style>
<path class="st0" d="M0,25c0-0.82,0.04-1.64,0.12-2.45s0.2-1.62,0.36-2.43s0.36-1.6,0.6-2.38c0.24-0.78,0.51-1.55,0.83-2.31
	s0.66-1.5,1.05-2.22s0.81-1.42,1.26-2.1c0.45-0.68,0.94-1.34,1.46-1.97C6.19,8.51,6.74,7.9,7.32,7.32C7.9,6.74,8.51,6.19,9.14,5.67
	s1.29-1.01,1.97-1.46c0.68-0.45,1.38-0.88,2.1-1.26s1.46-0.74,2.22-1.05c0.76-0.31,1.53-0.59,2.31-0.83
	c0.78-0.24,1.58-0.44,2.38-0.6c0.8-0.16,1.61-0.28,2.43-0.36C23.36,0.04,24.18,0,25,0h109c0.82,0,1.64,0.04,2.45,0.12
	s1.62,0.2,2.43,0.36c0.8,0.16,1.6,0.36,2.38,0.6c0.78,0.24,1.55,0.51,2.31,0.83c0.76,0.31,1.5,0.66,2.22,1.05s1.42,0.81,2.1,1.26
	s1.34,0.94,1.97,1.46s1.24,1.07,1.82,1.65c0.58,0.58,1.13,1.18,1.65,1.82c0.52,0.63,1.01,1.29,1.46,1.97
	c0.45,0.68,0.88,1.38,1.26,2.1c0.39,0.72,0.74,1.46,1.05,2.22s0.59,1.53,0.83,2.31c0.24,0.78,0.44,1.58,0.6,2.38
	c0.16,0.8,0.28,1.61,0.36,2.43c0.08,0.81,0.12,1.63,0.12,2.45c0,0.82-0.04,1.64-0.12,2.45c-0.08,0.81-0.2,1.62-0.36,2.43
	c-0.16,0.8-0.36,1.6-0.6,2.38c-0.24,0.78-0.51,1.55-0.83,2.31c-0.31,0.76-0.66,1.5-1.05,2.22c-0.39,0.72-0.81,1.42-1.26,2.1
	c-0.45,0.68-0.94,1.34-1.46,1.97s-1.07,1.24-1.65,1.82c-0.58,0.58-1.18,1.13-1.82,1.65s-1.29,1.01-1.97,1.46s-1.38,0.88-2.1,1.26
	c-0.72,0.39-1.46,0.74-2.22,1.05c-0.76,0.31-1.53,0.59-2.31,0.83c-0.78,0.24-1.58,0.44-2.38,0.6c-0.8,0.16-1.61,0.28-2.43,0.36
	S134.82,50,134,50H25c-0.82,0-1.64-0.04-2.45-0.12c-0.81-0.08-1.62-0.2-2.43-0.36c-0.8-0.16-1.6-0.36-2.38-0.6
	c-0.78-0.24-1.55-0.51-2.31-0.83c-0.76-0.31-1.5-0.66-2.22-1.05c-0.72-0.39-1.42-0.81-2.1-1.26c-0.68-0.45-1.34-0.94-1.97-1.46
	s-1.24-1.07-1.82-1.65c-0.58-0.58-1.13-1.18-1.65-1.82s-1.01-1.29-1.46-1.97c-0.45-0.68-0.88-1.38-1.26-2.1
	c-0.39-0.72-0.74-1.46-1.05-2.22c-0.31-0.76-0.59-1.53-0.83-2.31c-0.24-0.78-0.44-1.58-0.6-2.38c-0.16-0.8-0.28-1.61-0.36-2.43
	S0,25.82,0,25z"/>
<path class="st1" d="M129.76,22.8c0.21,0.2,0.33,0.47,0.33,0.76v15.98c0,0.59-0.49,1.06-1.09,1.06c-0.6,0-1.09-0.48-1.09-1.06V23.56
	c0-0.29,0.11-0.56,0.32-0.76c0.21-0.2,0.48-0.31,0.77-0.31C129.28,22.5,129.56,22.6,129.76,22.8z M129.37,8.5L129.37,8.5
	c3.33,0.08,6.58,1.21,9.2,3.19c2.72,2.06,4.66,4.98,5.46,8.22c0.81,3.24,0.45,6.69-1,9.71c-1.46,3.02-3.96,5.51-7.04,7.02
	c-0.15,0.07-0.32,0.11-0.49,0.11c-0.41,0-0.79-0.22-0.97-0.58c-0.13-0.25-0.16-0.54-0.07-0.81c0.09-0.28,0.29-0.5,0.55-0.63
	c2.61-1.27,4.74-3.37,5.99-5.91c1.25-2.54,1.59-5.44,0.97-8.18c-0.63-2.74-2.22-5.25-4.46-7.04c-2.25-1.8-5.1-2.85-8.03-2.95
	c-0.16-0.01-0.32-0.01-0.49-0.01c-2.79,0-5.47,0.83-7.75,2.39c-2.38,1.64-4.15,4.02-4.98,6.71s-0.71,5.61,0.34,8.23
	c1.06,2.62,3.02,4.86,5.53,6.31c0.25,0.14,0.43,0.38,0.5,0.66c0.07,0.28,0.02,0.57-0.13,0.82c-0.15,0.24-0.39,0.41-0.67,0.47
	c-0.28,0.07-0.57,0.02-0.82-0.12c-2.88-1.67-5.15-4.24-6.39-7.24c-1.24-3.01-1.43-6.37-0.53-9.49c0.9-3.12,2.87-5.9,5.55-7.86
	c1.34-0.98,2.83-1.73,4.42-2.25c1.59-0.51,3.25-0.78,4.93-0.78H129.37z"/>
<path class="st2" d="M129.76,22.8c0.21,0.2,0.33,0.47,0.33,0.76v15.98c0,0.59-0.49,1.06-1.09,1.06c-0.6,0-1.09-0.48-1.09-1.06V23.56
	c0-0.29,0.11-0.56,0.32-0.76c0.21-0.2,0.48-0.31,0.77-0.31C129.28,22.5,129.56,22.6,129.76,22.8z M129.37,8.5L129.37,8.5
	c3.33,0.08,6.58,1.21,9.2,3.19c2.72,2.06,4.66,4.98,5.46,8.22c0.81,3.24,0.45,6.69-1,9.71c-1.46,3.02-3.96,5.51-7.04,7.02
	c-0.15,0.07-0.32,0.11-0.49,0.11c-0.41,0-0.79-0.22-0.97-0.58c-0.13-0.25-0.16-0.54-0.07-0.81c0.09-0.28,0.29-0.5,0.55-0.63
	c2.61-1.27,4.74-3.37,5.99-5.91c1.25-2.54,1.59-5.44,0.97-8.18c-0.63-2.74-2.22-5.25-4.46-7.04c-2.25-1.8-5.1-2.85-8.03-2.95
	c-0.16-0.01-0.32-0.01-0.49-0.01c-2.79,0-5.47,0.83-7.75,2.39c-2.38,1.64-4.15,4.02-4.98,6.71s-0.71,5.61,0.34,8.23
	c1.06,2.62,3.02,4.86,5.53,6.31c0.25,0.14,0.43,0.38,0.5,0.66c0.07,0.28,0.02,0.57-0.13,0.82c-0.15,0.24-0.39,0.41-0.67,0.47
	c-0.28,0.07-0.57,0.02-0.82-0.12c-2.88-1.67-5.15-4.24-6.39-7.24c-1.24-3.01-1.43-6.37-0.53-9.49c0.9-3.12,2.87-5.9,5.55-7.86
	c1.34-0.98,2.83-1.73,4.42-2.25c1.59-0.51,3.25-0.78,4.93-0.78H129.37z"/>
<rect x="27.92" y="21.95" class="st1" width="3.23" height="14.64"/>
<path class="st1" d="M34.35,33.08c0,2.52,1.22,3.78,3.65,3.78c0.61,0,1.11-0.04,1.53-0.15v-2.77c-0.36,0.06-0.63,0.08-0.8,0.08
	c-0.94,0-1.34-0.4-1.34-1.41v-3.78h2.35v-2.83H37.4v-4.05h-3.04v4.05h-1.39v2.83h1.39V33.08z"/>
<polygon class="st1" points="43.13,27.06 45.82,21.95 42.71,21.95 40.84,27.06 "/>
<path class="st1" d="M44.2,34.99c1.03,1.26,2.56,1.89,4.62,1.89c3.11,0,4.66-1.41,4.66-3.57c0-1.41-0.86-2.41-2.6-3
	c-1.18-0.42-2.06-0.57-2.46-0.74c-0.34-0.15-0.44-0.29-0.44-0.57c0-0.4,0.38-0.67,1.05-0.67c0.9,0,1.66,0.25,2.23,0.78l1.49-2.06
	c-0.94-0.9-2.14-1.37-3.63-1.37c-1.15,0-2.12,0.29-2.92,0.9c-0.8,0.59-1.2,1.43-1.2,2.5c0,1.41,0.82,2.37,2.44,2.94
	c0.31,0.1,0.8,0.25,1.43,0.4c0.63,0.15,1.05,0.29,1.28,0.42c0.23,0.13,0.36,0.29,0.36,0.5c0,0.57-0.53,0.86-1.6,0.86
	c-1.2,0-2.31-0.46-2.9-1.15L44.2,34.99z"/>
<path class="st1" d="M65.24,29.3c0-1.28,0.44-2.37,1.32-3.28c0.88-0.9,1.97-1.37,3.25-1.37s2.37,0.46,3.25,1.37
	c0.88,0.9,1.32,1.99,1.32,3.28s-0.44,2.39-1.34,3.3c-0.88,0.9-1.95,1.34-3.23,1.34s-2.37-0.44-3.25-1.32
	C65.68,31.72,65.24,30.63,65.24,29.3z M62.01,29.3c0,2.12,0.76,3.93,2.27,5.4c1.53,1.45,3.38,2.18,5.54,2.18
	c2.18,0,4.03-0.74,5.54-2.18c1.51-1.47,2.27-3.28,2.27-5.4s-0.76-3.91-2.29-5.38c-1.51-1.47-3.36-2.2-5.52-2.2s-4.01,0.73-5.54,2.2
	C62.76,25.4,62.01,27.18,62.01,29.3z"/>
<path class="st1" d="M83.57,36.59v-7.75h3.13v7.75h3.02v-7.75h2.12v-2.83h-2.16v-0.48c0-0.9,0.48-1.26,1.51-1.26
	c0.44,0,0.74,0.04,0.92,0.1v-2.6c-0.42-0.06-0.84-0.1-1.26-0.1c-1.28,0-2.29,0.29-3.04,0.9c-0.74,0.59-1.11,1.64-1.11,3.15v0.29
	h-3.17v-0.48c0-0.9,0.44-1.26,1.43-1.26c0.4,0,0.69,0.04,0.86,0.1v-2.6c-0.42-0.06-0.84-0.1-1.26-0.1c-1.22,0-2.18,0.29-2.92,0.9
	c-0.73,0.59-1.09,1.64-1.09,3.15v0.29h-1.74v2.83h1.74v7.75H83.57z"/>
</svg>
