<svg xmlns="http://www.w3.org/2000/svg" width="159" height="50" viewBox="0 0 159 50">
  <g id="Group_1858" data-name="Group 1858" transform="translate(-1076 -1308)">
    <rect id="Rectangle_1986" data-name="Rectangle 1986" width="159" height="50" rx="25" transform="translate(1076 1308)" fill="#c20430"/>
    <path id="Path_2014" data-name="Path 2014" d="M-17116-905.768a15.494,15.494,0,0,1-9.348-3.116,14.445,14.445,0,0,1-5.332-8.007,13.985,13.985,0,0,1,.979-9.458,14.781,14.781,0,0,1,6.869-6.843.732.732,0,0,1,.963.3.678.678,0,0,1-.312.927,13.378,13.378,0,0,0-6.162,6.083,12.66,12.66,0,0,0-1,8.432,13.056,13.056,0,0,0,4.592,7.253,13.99,13.99,0,0,0,8.252,3.036,14.068,14.068,0,0,0,8.461-2.451,13.15,13.15,0,0,0,5.127-6.912,12.637,12.637,0,0,0-.352-8.479,13.271,13.271,0,0,0-5.684-6.5.686.686,0,0,1-.326-.425.651.651,0,0,1,.084-.522.711.711,0,0,1,.439-.313.748.748,0,0,1,.545.08,14.683,14.683,0,0,1,6.23,7.059,13.95,13.95,0,0,1,.514,9.24,14.488,14.488,0,0,1-5.41,7.657,15.505,15.505,0,0,1-9.133,2.954Zm-.508-14.2a.684.684,0,0,1-.209-.488v-15.981a.7.7,0,0,1,.717-.69.7.7,0,0,1,.719.69v15.981a.676.676,0,0,1-.209.488.737.737,0,0,1-.51.2A.733.733,0,0,1-17116.506-919.965Z" transform="translate(-15911.002 411.107) rotate(180)" fill="#fff" stroke="#fff" stroke-width="0.5"/>
    <path id="Path_1998_-_Outline" data-name="Path 1998 - Outline" d="M-17116.373-905.393v0a15.924,15.924,0,0,1-9.2-3.188,14.874,14.874,0,0,1-5.469-8.215,14.422,14.422,0,0,1,1-9.711,15.226,15.226,0,0,1,7.043-7.018,1.115,1.115,0,0,1,.486-.112,1.1,1.1,0,0,1,.973.577,1.034,1.034,0,0,1,.07.809,1.07,1.07,0,0,1-.549.63,13.071,13.071,0,0,0-5.992,5.913,12.351,12.351,0,0,0-.967,8.183,12.752,12.752,0,0,0,4.461,7.044,13.686,13.686,0,0,0,8.031,2.954c.16.006.322.008.484.008a13.6,13.6,0,0,0,7.75-2.394,12.836,12.836,0,0,0,4.982-6.714,12.339,12.339,0,0,0-.342-8.228,12.957,12.957,0,0,0-5.523-6.314,1.06,1.06,0,0,1-.5-.658,1.029,1.029,0,0,1,.131-.816,1.08,1.08,0,0,1,.668-.476,1.132,1.132,0,0,1,.82.12,15.137,15.137,0,0,1,6.389,7.24,14.4,14.4,0,0,1,.527,9.488,14.946,14.946,0,0,1-5.549,7.856,15.655,15.655,0,0,1-4.42,2.249,16,16,0,0,1-4.934.777Zm-6.135-27.5a.359.359,0,0,0-.158.036,14.473,14.473,0,0,0-6.7,6.669,13.666,13.666,0,0,0-.953,9.2,14.129,14.129,0,0,0,5.2,7.8,15.179,15.179,0,0,0,9.121,3.04h.057a15.227,15.227,0,0,0,8.855-2.882,14.206,14.206,0,0,0,5.271-7.458,13.663,13.663,0,0,0-.5-8.993,14.4,14.4,0,0,0-6.072-6.878.384.384,0,0,0-.271-.039.338.338,0,0,0-.207.146l0,.005a.273.273,0,0,0-.035.223.306.306,0,0,0,.15.2,13.705,13.705,0,0,1,5.844,6.683,13.078,13.078,0,0,1,.361,8.73,13.588,13.588,0,0,1-5.271,7.109,14.355,14.355,0,0,1-8.176,2.526c-.17,0-.342,0-.512-.009a14.437,14.437,0,0,1-8.473-3.118,13.5,13.5,0,0,1-4.723-7.461,13.1,13.1,0,0,1,1.025-8.682,13.821,13.821,0,0,1,6.334-6.255.324.324,0,0,0,.166-.188.288.288,0,0,0-.021-.227A.348.348,0,0,0-17122.508-932.891Zm6.51,13.5a1.1,1.1,0,0,1-.768-.306,1.068,1.068,0,0,1-.324-.759v-15.981A1.08,1.08,0,0,1-17116-937.5a1.081,1.081,0,0,1,1.094,1.065v15.981a1.044,1.044,0,0,1-.324.758A1.107,1.107,0,0,1-17116-919.388Zm0-17.361a.33.33,0,0,0-.342.315v15.981a.313.313,0,0,0,.1.22.355.355,0,0,0,.246.1.363.363,0,0,0,.25-.1.3.3,0,0,0,.094-.217v-15.981A.331.331,0,0,0-17116-936.749Z" transform="translate(-15911.002 411.107) rotate(180)" fill="#fff" stroke="#fff" stroke-width="0.5"/>
    <text id="It_s_Off" data-name="It’s Off" transform="translate(1088.945 1321.591)" fill="#fff" font-size="21" font-family="HurmeGeometricSans4-Bold, 'Hurme Geometric Sans \34 '" font-weight="700"><tspan x="13.467" y="23">It’s Off</tspan></text>
  </g>
</svg>
