<svg xmlns="http://www.w3.org/2000/svg" width="159" height="50" viewBox="0 0 159 50">
  <g id="Group_1857" data-name="Group 1857" transform="translate(-1076 -657)">
    <rect id="Rectangle_1963" data-name="Rectangle 1963" width="159" height="50" rx="25" transform="translate(1076 657)" fill="#8fd200"/>
    <path id="Union_6" data-name="Union 6" d="M-15868.91,32.107v0a15.93,15.93,0,0,1-9.2-3.189,14.857,14.857,0,0,1-5.465-8.216,14.423,14.423,0,0,1,1-9.711,15.236,15.236,0,0,1,7.045-7.016,1.141,1.141,0,0,1,.486-.112,1.09,1.09,0,0,1,.973.578,1.034,1.034,0,0,1,.071.805,1.082,1.082,0,0,1-.55.634,13.066,13.066,0,0,0-5.992,5.912,12.365,12.365,0,0,0-.969,8.18,12.768,12.768,0,0,0,4.461,7.044,13.7,13.7,0,0,0,8.033,2.954c.159.008.322.008.486.008a13.6,13.6,0,0,0,7.749-2.392,12.828,12.828,0,0,0,4.979-6.713,12.332,12.332,0,0,0-.339-8.228,12.974,12.974,0,0,0-5.525-6.315,1.053,1.053,0,0,1-.5-.658,1.033,1.033,0,0,1,.132-.817,1.091,1.091,0,0,1,.669-.474,1.1,1.1,0,0,1,.817.12,15.147,15.147,0,0,1,6.391,7.239,14.4,14.4,0,0,1,.526,9.488,14.92,14.92,0,0,1-5.55,7.857,15.654,15.654,0,0,1-4.417,2.248,16.043,16.043,0,0,1-4.935.777Zm-.391-14.3a1.058,1.058,0,0,1-.327-.757V1.064A1.081,1.081,0,0,1-15868.535,0a1.08,1.08,0,0,1,1.092,1.064V17.046a1.032,1.032,0,0,1-.322.757,1.1,1.1,0,0,1-.77.307A1.089,1.089,0,0,1-15869.3,17.8Z" transform="translate(17073.533 666.758)" fill="#fff" stroke="#fff" stroke-width="0.5"/>
    <text id="It_s_On" data-name="It’s On" transform="translate(1088.945 670.591)" fill="#fff" font-size="21" font-family="HurmeGeometricSans4-Bold, 'Hurme Geometric Sans \34 '" font-weight="700"><tspan x="14.181" y="23">It’s On</tspan></text>
  </g>
</svg>
