<svg xmlns="http://www.w3.org/2000/svg" width="375" height="50" viewBox="0 0 375 50">
  <g id="Group_1892" data-name="Group 1892" transform="translate(0 -87)">
    <rect id="Rectangle_2008" data-name="Rectangle 2008" width="375" height="50" transform="translate(0 87)" fill="#f15d2a"/>
    <text id="Click_Here_To_View_As_Front_End" data-name="Click Here To View As Front End" transform="translate(167.908 118)" fill="#fff" font-size="16" font-family="HurmeGeometricSans4-Bold, 'Hurme Geometric Sans \34 '" font-weight="700" letter-spacing="0.025em"><tspan x="-131.728" y="0">Click Here To View As Front End</tspan></text>
    <g id="noun-view-1053867" transform="translate(160.766 -45.603)">
      <path id="Path_2023" data-name="Path 2023" d="M293.257,227.764a4.507,4.507,0,1,1,3.187-1.32A4.506,4.506,0,0,1,293.257,227.764Zm0-7.727a3.219,3.219,0,1,0,2.277.943A3.221,3.221,0,0,0,293.257,220.038Z" transform="translate(-129.861 -65.011)" fill="#712207"/>
      <path id="Path_2023_-_Outline" data-name="Path 2023 - Outline" d="M293.257,227.939a4.682,4.682,0,1,1,3.311-1.371A4.651,4.651,0,0,1,293.257,227.939Zm0-9.014a4.332,4.332,0,1,0,3.063,1.269A4.3,4.3,0,0,0,293.257,218.925Zm0,7.727a3.394,3.394,0,1,1,2.4-.994A3.374,3.374,0,0,1,293.257,226.652Zm0-6.439a3.044,3.044,0,1,0,2.153.891A3.026,3.026,0,0,0,293.257,220.213Z" transform="translate(-129.861 -65.011)" fill="#712207"/>
      <path id="Path_2024" data-name="Path 2024" d="M163.4,167.9c-6.143,0-11.384-4.546-13.959-7.263a3.1,3.1,0,0,1-.077-4.211c2.576-2.936,7.842-7.855,14.023-7.855s11.448,4.919,14.023,7.855a3.1,3.1,0,0,1-.077,4.211c-2.55,2.756-7.791,7.263-13.934,7.263Zm0-18.029c-5.679,0-10.624,4.649-13.058,7.418a1.816,1.816,0,0,0,0,2.472c2.434,2.576,7.366,6.864,13.02,6.864s10.585-4.3,13.02-6.864h0a1.815,1.815,0,0,0,0-2.472c-2.356-2.769-7.3-7.418-12.981-7.418Z" fill="#712207"/>
      <path id="Path_2024_-_Outline" data-name="Path 2024 - Outline" d="M163.4,168.079h0a16.083,16.083,0,0,1-8.409-2.638,29.018,29.018,0,0,1-5.677-4.679,3.278,3.278,0,0,1-.081-4.448,29.521,29.521,0,0,1,5.694-5.058,13.96,13.96,0,0,1,16.921,0,29.523,29.523,0,0,1,5.694,5.059,3.279,3.279,0,0,1-.082,4.448c-2.034,2.2-7.481,7.316-14.059,7.317Zm-.013-19.329a15.034,15.034,0,0,0-8.267,2.8,29.17,29.17,0,0,0-5.625,5,2.928,2.928,0,0,0,.072,3.975c2.552,2.693,7.742,7.209,13.832,7.209,6.441,0,11.8-5.04,13.805-7.207a2.929,2.929,0,0,0,.075-3.976,29.172,29.172,0,0,0-5.625-5A15.034,15.034,0,0,0,163.383,148.75Zm-.025,18.054a14.859,14.859,0,0,1-7.81-2.492,27.667,27.667,0,0,1-5.337-4.426,1.991,1.991,0,0,1,0-2.712c2.451-2.789,7.428-7.473,13.186-7.473h0a14.1,14.1,0,0,1,7.834,2.7,27.213,27.213,0,0,1,5.277,4.776,1.991,1.991,0,0,1,.224,2.414h.053l-.28.3C174.05,162.47,169.079,166.8,163.358,166.8Zm.038-16.754c-2.412,0-7.3.956-12.926,7.358a1.641,1.641,0,0,0,0,2.238,27.311,27.311,0,0,0,5.267,4.368,14.518,14.518,0,0,0,7.625,2.44c5.579,0,10.458-4.249,12.878-6.794l.013-.014a1.64,1.64,0,0,0,0-2.234l-.005-.006c-1.882-2.212-6.9-7.356-12.847-7.356Z" fill="#712207"/>
    </g>
  </g>
</svg>
