<?xml version="1.0" encoding="utf-8"?>
<!-- Generator: Adobe Illustrator 26.0.3, SVG Export Plug-In . SVG Version: 6.00 Build 0)  -->
<svg version="1.1" id="Layer_1" xmlns="http://www.w3.org/2000/svg" xmlns:xlink="http://www.w3.org/1999/xlink" x="0px" y="0px"
	 width="375px" height="50px" viewBox="0 0 375 50" style="enable-background:new 0 0 375 50;" xml:space="preserve">
<style type="text/css">
	.st0{fill:#F15D2A;}
	.st1{fill:#FFFFFF;}
	.st2{fill:#712207;}
</style>
<rect class="st0" width="375" height="50"/>
<path class="st1" d="M42.74,19.67c-1.68,0-3.09,0.54-4.26,1.65s-1.74,2.46-1.74,4.11c0,1.65,0.58,3.01,1.74,4.11
	c1.17,1.09,2.58,1.63,4.26,1.63c1.78,0,3.39-0.77,4.53-2.1l-1.68-1.42c-0.75,0.85-1.7,1.28-2.85,1.28c-1.01,0-1.84-0.34-2.53-0.99
	c-0.67-0.67-1.01-1.5-1.01-2.51s0.34-1.84,1.02-2.51c0.69-0.67,1.52-1.01,2.51-1.01c1.14,0,2.08,0.42,2.83,1.26l1.68-1.42
	C46.12,20.46,44.52,19.67,42.74,19.67z"/>
<path class="st1" d="M48.72,28.38c0,1.89,0.91,2.83,2.75,2.83c0.48,0,0.86-0.03,1.14-0.11v-2.11c-0.16,0.05-0.35,0.06-0.58,0.06
	c-0.66,0-0.93-0.32-0.93-1.04v-8.16h-2.38V28.38z"/>
<path class="st1" d="M53.75,20.9c0,0.75,0.61,1.34,1.36,1.34c0.75,0,1.36-0.59,1.36-1.34c0-0.77-0.61-1.36-1.36-1.36
	C54.36,19.54,53.75,20.14,53.75,20.9z M53.92,28.87c0,1.52,0.7,2.27,2.11,2.27c0.53,0,0.9-0.05,1.1-0.13v-2.03
	C57.09,29,57,29.02,56.85,29.02c-0.4,0-0.54-0.26-0.54-0.85v-5.23h-2.38V28.87z"/>
<path class="st1" d="M62.61,22.68c-1.25,0-2.3,0.42-3.17,1.23c-0.85,0.82-1.28,1.82-1.28,3.04s0.43,2.22,1.28,3.04
	c0.86,0.82,1.92,1.22,3.17,1.22c1.33,0,2.45-0.5,3.36-1.5l-1.5-1.49c-0.53,0.56-1.14,0.83-1.86,0.83c-1.15,0-2.06-0.88-2.06-2.1
	s0.9-2.11,2.06-2.11c0.72,0,1.33,0.27,1.86,0.83l1.5-1.49C65.06,23.18,63.94,22.68,62.61,22.68z"/>
<polygon class="st1" points="69.83,31 69.83,28.74 70.5,28.02 72.84,31 75.52,31 72.04,26.58 75.25,22.94 72.48,22.94 69.83,26.01 
	69.83,19.85 67.44,19.85 67.44,31 "/>
<polygon class="st1" points="85.65,31 85.65,26.23 90.48,26.23 90.48,31 92.95,31 92.95,19.85 90.48,19.85 90.48,23.99 85.65,23.99 
	85.65,19.85 83.19,19.85 83.19,31 "/>
<path class="st1" d="M97.32,26.04c0.06-0.75,0.91-1.34,1.95-1.34c0.96,0,1.74,0.59,1.74,1.34H97.32z M94.9,27.02
	c0,1.26,0.4,2.27,1.22,3.04c0.82,0.75,1.87,1.14,3.2,1.14c1.36,0,2.53-0.5,3.47-1.47l-1.39-1.33c-0.56,0.53-1.22,0.78-1.97,0.78
	c-1.26,0-2.1-0.62-2.14-1.58h6.1c0.02-0.24,0.03-0.5,0.03-0.77c0-1.17-0.38-2.13-1.15-2.91c-0.77-0.78-1.76-1.18-2.99-1.18
	c-1.26,0-2.32,0.38-3.14,1.17c-0.82,0.77-1.23,1.79-1.23,3.06V27.02z"/>
<path class="st1" d="M107.38,31v-3.94c0-1.33,0.8-2.1,2.16-2.1c0.29,0,0.56,0.03,0.8,0.08v-2.24c-0.26-0.03-0.46-0.05-0.62-0.05
	c-1.1,0-1.97,0.46-2.34,1.28v-1.1H105V31H107.38z"/>
<path class="st1" d="M113.6,26.04c0.06-0.75,0.91-1.34,1.95-1.34c0.96,0,1.74,0.59,1.74,1.34H113.6z M111.19,27.02
	c0,1.26,0.4,2.27,1.22,3.04c0.82,0.75,1.87,1.14,3.2,1.14c1.36,0,2.53-0.5,3.47-1.47l-1.39-1.33c-0.56,0.53-1.22,0.78-1.97,0.78
	c-1.26,0-2.1-0.62-2.14-1.58h6.1c0.02-0.24,0.03-0.5,0.03-0.77c0-1.17-0.38-2.13-1.15-2.91c-0.77-0.78-1.76-1.18-2.99-1.18
	c-1.26,0-2.32,0.38-3.14,1.17c-0.82,0.77-1.23,1.79-1.23,3.06V27.02z"/>
<polygon class="st1" points="131.99,31 131.99,22.09 134.96,22.09 134.96,19.85 126.5,19.85 126.5,22.09 129.52,22.09 129.52,31 "/>
<path class="st1" d="M137.17,26.97c0-0.59,0.21-1.09,0.61-1.49c0.4-0.42,0.9-0.62,1.49-0.62c0.59,0,1.09,0.21,1.49,0.62
	c0.4,0.4,0.61,0.9,0.61,1.49c0,0.59-0.21,1.09-0.61,1.5c-0.4,0.4-0.9,0.61-1.49,0.61c-0.59,0-1.09-0.21-1.49-0.61
	C137.38,28.07,137.17,27.56,137.17,26.97z M139.27,22.7c-1.25,0-2.3,0.42-3.18,1.25c-0.86,0.82-1.3,1.82-1.3,3.02
	c0,1.2,0.43,2.21,1.3,3.04c0.88,0.82,1.94,1.23,3.18,1.23c1.23,0,2.29-0.42,3.17-1.23c0.88-0.83,1.31-1.84,1.31-3.04
	c0-1.2-0.43-2.21-1.31-3.02C141.56,23.11,140.5,22.7,139.27,22.7z"/>
<polygon class="st1" points="157.22,31 161.78,19.85 159.16,19.85 156.13,27.4 153.09,19.85 150.47,19.85 155.04,31 "/>
<path class="st1" d="M162.88,20.9c0,0.75,0.61,1.34,1.36,1.34s1.36-0.59,1.36-1.34c0-0.77-0.61-1.36-1.36-1.36
	S162.88,20.14,162.88,20.9z M163.06,28.87c0,1.52,0.7,2.27,2.11,2.27c0.53,0,0.9-0.05,1.1-0.13v-2.03
	c-0.05,0.02-0.14,0.03-0.29,0.03c-0.4,0-0.54-0.26-0.54-0.85v-5.23h-2.38V28.87z"/>
<path class="st1" d="M169.7,26.04c0.06-0.75,0.91-1.34,1.95-1.34c0.96,0,1.74,0.59,1.74,1.34H169.7z M167.28,27.02
	c0,1.26,0.4,2.27,1.22,3.04c0.82,0.75,1.87,1.14,3.2,1.14c1.36,0,2.53-0.5,3.47-1.47l-1.39-1.33c-0.56,0.53-1.22,0.78-1.97,0.78
	c-1.26,0-2.1-0.62-2.14-1.58h6.1c0.02-0.24,0.03-0.5,0.03-0.77c0-1.17-0.38-2.13-1.15-2.91c-0.77-0.78-1.76-1.18-2.99-1.18
	c-1.26,0-2.32,0.38-3.14,1.17c-0.82,0.77-1.23,1.79-1.23,3.06V27.02z"/>
<polygon class="st1" points="180.84,31 182.24,26.39 183.67,31 185.64,31 188.2,22.94 185.99,22.94 184.56,27.43 183.17,22.94 
	181.32,22.94 179.94,27.43 178.52,22.94 176.31,22.94 178.85,31 "/>
<path class="st1" d="M200.04,23.11l1.62,4.05h-3.25L200.04,23.11z M196.95,31l0.75-1.87h4.66l0.75,1.87h2.62l-4.61-11.15h-2.19
	L194.32,31H196.95z"/>
<path class="st1" d="M206.32,29.78c0.78,0.96,1.95,1.44,3.52,1.44c2.37,0,3.55-1.07,3.55-2.72c0-1.07-0.66-1.84-1.98-2.29
	c-0.9-0.32-1.57-0.43-1.87-0.56c-0.26-0.11-0.34-0.22-0.34-0.43c0-0.3,0.29-0.51,0.8-0.51c0.69,0,1.26,0.19,1.7,0.59l1.14-1.57
	c-0.72-0.69-1.63-1.04-2.77-1.04c-0.88,0-1.62,0.22-2.22,0.69c-0.61,0.45-0.91,1.09-0.91,1.9c0,1.07,0.62,1.81,1.86,2.24
	c0.24,0.08,0.61,0.19,1.09,0.3c0.48,0.11,0.8,0.22,0.98,0.32c0.18,0.1,0.27,0.22,0.27,0.38c0,0.43-0.4,0.66-1.22,0.66
	c-0.91,0-1.76-0.35-2.21-0.88L206.32,29.78z"/>
<polygon class="st1" points="224.28,31 224.28,26.57 228.72,26.57 228.72,24.38 224.28,24.38 224.28,22.09 229.16,22.09 
	229.16,19.85 221.81,19.85 221.81,31 "/>
<path class="st1" d="M233.09,31v-3.94c0-1.33,0.8-2.1,2.16-2.1c0.29,0,0.56,0.03,0.8,0.08v-2.24c-0.26-0.03-0.46-0.05-0.62-0.05
	c-1.1,0-1.97,0.46-2.34,1.28v-1.1h-2.38V31H233.09z"/>
<path class="st1" d="M239.28,26.97c0-0.59,0.21-1.09,0.61-1.49c0.4-0.42,0.9-0.62,1.49-0.62c0.59,0,1.09,0.21,1.49,0.62
	c0.4,0.4,0.61,0.9,0.61,1.49c0,0.59-0.21,1.09-0.61,1.5c-0.4,0.4-0.9,0.61-1.49,0.61c-0.59,0-1.09-0.21-1.49-0.61
	C239.49,28.07,239.28,27.56,239.28,26.97z M241.38,22.7c-1.25,0-2.3,0.42-3.18,1.25c-0.86,0.82-1.3,1.82-1.3,3.02
	c0,1.2,0.43,2.21,1.3,3.04c0.88,0.82,1.94,1.23,3.18,1.23c1.23,0,2.29-0.42,3.17-1.23c0.88-0.83,1.31-1.84,1.31-3.04
	c0-1.2-0.43-2.21-1.31-3.02C243.67,23.11,242.61,22.7,241.38,22.7z"/>
<path class="st1" d="M249.89,31v-4.53c0-0.94,0.66-1.6,1.55-1.6c0.94,0,1.44,0.58,1.44,1.52v2.4c0,1.54,0.7,2.3,2.13,2.3
	c0.5,0,0.85-0.03,1.04-0.11v-2.02l-0.1,0.02h-0.16c-0.4,0-0.53-0.22-0.53-0.85V26.1c0-2.1-1.12-3.34-3.06-3.34
	c-1.09,0-1.98,0.48-2.32,1.18v-1.01h-2.38V31H249.89z"/>
<path class="st1" d="M257.83,28.33c0,1.92,0.93,2.88,2.78,2.88c0.46,0,0.85-0.03,1.17-0.11v-2.11c-0.27,0.05-0.48,0.06-0.61,0.06
	c-0.72,0-1.02-0.3-1.02-1.07V25.1h1.79v-2.16h-1.79v-3.09h-2.32v3.09h-1.06v2.16h1.06V28.33z"/>
<polygon class="st1" points="278.07,31 278.07,28.76 272.8,28.76 272.8,26.38 277.62,26.38 277.62,24.18 272.8,24.18 272.8,22.09 
	277.96,22.09 277.96,19.85 270.34,19.85 270.34,31 "/>
<path class="st1" d="M282.39,31v-4.53c0-0.94,0.66-1.6,1.55-1.6c0.94,0,1.44,0.58,1.44,1.52v2.4c0,1.54,0.7,2.3,2.13,2.3
	c0.5,0,0.85-0.03,1.04-0.11v-2.02l-0.1,0.02h-0.16c-0.4,0-0.53-0.22-0.53-0.85V26.1c0-2.1-1.12-3.34-3.06-3.34
	c-1.09,0-1.98,0.48-2.32,1.18v-1.01H280V31H282.39z"/>
<path class="st1" d="M294.04,28.98c-0.58,0-1.06-0.19-1.46-0.58c-0.4-0.4-0.59-0.88-0.59-1.44s0.19-1.04,0.59-1.42
	c0.4-0.4,0.88-0.59,1.46-0.59c0.59,0,1.09,0.19,1.49,0.59c0.42,0.38,0.62,0.86,0.62,1.42s-0.21,1.04-0.62,1.44
	C295.12,28.79,294.63,28.98,294.04,28.98z M289.6,26.97c0,1.18,0.38,2.18,1.14,2.99c0.77,0.8,1.73,1.2,2.86,1.2
	c1.26,0,2.14-0.38,2.67-1.17c0.11,0.34,0.35,0.62,0.72,0.86c0.34,0.19,0.78,0.29,1.31,0.29c0.46,0,0.82-0.05,1.07-0.13v-1.98
	c-0.14,0.02-0.29,0.03-0.4,0.03c-0.43,0-0.59-0.26-0.59-0.9v-8.32H296v4.14c-0.24-0.7-1.18-1.2-2.4-1.2c-1.14,0-2.1,0.4-2.86,1.22
	C289.99,24.81,289.6,25.8,289.6,26.97z"/>
<path class="st2" d="M324.16,22.42c-0.85,0-1.67,0.34-2.28,0.94c-0.6,0.6-0.94,1.42-0.94,2.28c0,0.85,0.34,1.67,0.94,2.28
	c0.6,0.6,1.42,0.94,2.28,0.94c0.85,0,1.67-0.34,2.28-0.94c0.6-0.6,0.94-1.42,0.94-2.28c0-0.85-0.34-1.67-0.94-2.28
	C325.83,22.76,325.02,22.42,324.16,22.42z M324.16,30.15c-1.2,0-2.34-0.47-3.19-1.32c-0.85-0.85-1.32-1.99-1.32-3.19
	s0.47-2.34,1.32-3.19c0.85-0.85,1.99-1.32,3.19-1.32c1.2,0,2.34,0.47,3.19,1.32c0.85,0.85,1.32,1.99,1.32,3.19s-0.47,2.34-1.32,3.19
	C326.5,29.68,325.36,30.15,324.16,30.15z"/>
<path class="st2" d="M324.16,22.6c-0.81,0-1.58,0.32-2.15,0.89c-0.57,0.58-0.89,1.34-0.89,2.15c0,0.81,0.32,1.58,0.89,2.15
	c0.58,0.57,1.34,0.89,2.15,0.89c0.81,0,1.58-0.32,2.15-0.89c0.57-0.58,0.89-1.34,0.89-2.15c0-0.81-0.32-1.58-0.89-2.15
	C325.74,22.92,324.97,22.6,324.16,22.6z M324.16,29.04c-0.91,0-1.76-0.35-2.4-0.99c-0.64-0.64-0.99-1.49-0.99-2.4
	c0-0.91,0.35-1.76,0.99-2.4c0.64-0.64,1.49-0.99,2.4-0.99c0.91,0,1.76,0.35,2.4,0.99c0.64,0.64,0.99,1.49,0.99,2.4
	c0,0.91-0.35,1.76-0.99,2.4C325.92,28.68,325.07,29.04,324.16,29.04z M324.16,21.31c-1.16,0-2.25,0.45-3.06,1.27
	c-0.82,0.82-1.27,1.91-1.27,3.06c0,1.16,0.45,2.25,1.27,3.06c0.82,0.82,1.91,1.27,3.06,1.27c1.16,0,2.25-0.45,3.06-1.27
	c0.82-0.82,1.27-1.91,1.27-3.06c0-1.16-0.45-2.25-1.27-3.06C326.41,21.76,325.32,21.31,324.16,21.31z M324.16,30.33
	c-1.25,0-2.43-0.49-3.31-1.37c-0.88-0.88-1.37-2.06-1.37-3.31c0-1.25,0.49-2.43,1.37-3.31c0.88-0.88,2.06-1.37,3.31-1.37
	c1.25,0,2.43,0.49,3.31,1.37c0.88,0.88,1.37,2.06,1.37,3.31c0,1.25-0.49,2.43-1.37,3.31C326.59,29.84,325.41,30.33,324.16,30.33z"/>
<path class="st2" d="M324.16,17.27c-5.68,0-10.62,4.65-13.06,7.42c-0.31,0.34-0.49,0.78-0.49,1.24c0,0.46,0.17,0.9,0.49,1.24
	c2.43,2.58,7.37,6.86,13.02,6.86c5.65,0,10.59-4.3,13.02-6.86h0c0.31-0.34,0.49-0.78,0.49-1.24c0-0.46-0.17-0.9-0.49-1.24
	C334.79,21.92,329.84,17.27,324.16,17.27L324.16,17.27z M324.16,35.3c-6.14,0-11.38-4.55-13.96-7.26c-0.54-0.56-0.85-1.31-0.86-2.09
	c-0.01-0.78,0.27-1.54,0.79-2.12c2.58-2.94,7.84-7.86,14.02-7.86c6.18,0,11.45,4.92,14.02,7.86c0.52,0.58,0.8,1.34,0.79,2.12
	c-0.01,0.78-0.32,1.53-0.86,2.09C335.54,30.79,330.3,35.3,324.16,35.3L324.16,35.3z"/>
<path class="st2" d="M324.16,17.45c-2.41,0-7.3,0.96-12.93,7.36c-0.29,0.31-0.44,0.7-0.44,1.12c0,0.42,0.16,0.81,0.44,1.12
	c1.14,1.21,2.99,2.95,5.27,4.37c2.61,1.62,5.17,2.44,7.62,2.44c5.58,0,10.46-4.25,12.88-6.79l0.01-0.01c0.28-0.3,0.44-0.7,0.44-1.12
	c0-0.42-0.16-0.81-0.44-1.12l-0.01-0.01C335.13,22.59,330.11,17.45,324.16,17.45L324.16,17.45z M324.12,34.2
	c-2.52,0-5.15-0.84-7.81-2.49c-2.31-1.44-4.18-3.2-5.34-4.43c-0.34-0.37-0.53-0.85-0.53-1.36c0-0.51,0.19-0.99,0.53-1.36
	c2.45-2.79,7.43-7.47,13.19-7.47h0c2.54,0,5.17,0.91,7.83,2.7c2.47,1.66,4.36,3.7,5.28,4.78c0.34,0.37,0.53,0.85,0.53,1.35
	c0,0.38-0.11,0.75-0.31,1.06h0.05l-0.28,0.3C334.82,29.87,329.84,34.2,324.12,34.2z M324.15,16.15c-2.68,0-5.46,0.94-8.27,2.8
	c-2.45,1.62-4.41,3.61-5.62,5c-0.49,0.55-0.76,1.26-0.74,2c0.01,0.74,0.3,1.44,0.81,1.97c2.55,2.69,7.74,7.21,13.83,7.21
	c6.44,0,11.8-5.04,13.81-7.21c0.51-0.54,0.8-1.24,0.82-1.97c0.01-0.74-0.25-1.45-0.74-2c-1.22-1.39-3.18-3.38-5.63-5
	C329.61,17.09,326.83,16.15,324.15,16.15z M324.16,35.48L324.16,35.48c-2.73,0-5.56-0.89-8.41-2.64c-2.46-1.51-4.45-3.38-5.68-4.68
	c-0.57-0.6-0.9-1.38-0.91-2.21c-0.02-0.83,0.28-1.62,0.83-2.24c1.23-1.4,3.22-3.42,5.69-5.06c2.86-1.89,5.71-2.86,8.46-2.86
	c2.75,0,5.6,0.96,8.46,2.86c2.48,1.64,4.46,3.66,5.69,5.06c0.55,0.62,0.84,1.41,0.83,2.24c-0.01,0.83-0.34,1.61-0.91,2.21
	C336.19,30.36,330.74,35.48,324.16,35.48z"/>
</svg>
