<svg xmlns="http://www.w3.org/2000/svg" xmlns:xlink="http://www.w3.org/1999/xlink" width="273" height="68.833" viewBox="0 0 273 68.833">
  <defs>
    <filter id="Rectangle_241" x="0" y="0" width="273" height="68.833" filterUnits="userSpaceOnUse">
      <feOffset dy="3" input="SourceAlpha"/>
      <feGaussianBlur stdDeviation="3" result="blur"/>
      <feFlood flood-opacity="0.161"/>
      <feComposite operator="in" in2="blur"/>
      <feComposite in="SourceGraphic"/>
    </filter>
  </defs>
  <g id="Group_7272" data-name="Group 7272" transform="translate(-888.48 -1443)">
    <g id="Group_7271" data-name="Group 7271">
      <g id="Submit_Button" data-name="Submit Button" transform="translate(-7.209 -637.413)">
        <g id="DownloadButton" transform="translate(817.209 2086.413)">
          <g transform="matrix(1, 0, 0, 1, 78.48, -6)" filter="url(#Rectangle_241)">
            <rect id="Rectangle_241-2" data-name="Rectangle 241" width="255" height="50.833" rx="25.417" transform="translate(9 6)" fill="#f15d2a"/>
          </g>
          <circle id="Ellipse_1" data-name="Ellipse 1" cx="25.5" cy="25.5" r="25.5" transform="translate(291.48 0)" fill="#712207"/>
          <text id="View_As_Front_End" data-name="View As Front End" transform="translate(193.739 31.779)" fill="#fff" font-size="18" font-family="HurmeGeometricSans4-Bold, 'Hurme Geometric Sans \34 '" font-weight="700" letter-spacing="0.025em"><tspan x="-84.042" y="0">View As Front End</tspan></text>
          <g id="noun-view-1053867" transform="translate(153.598 -132.823)">
            <path id="Path_2023" data-name="Path 2023" d="M293.257,227.764a4.507,4.507,0,1,1,3.187-1.32A4.506,4.506,0,0,1,293.257,227.764Zm0-7.727a3.219,3.219,0,1,0,2.277.943A3.221,3.221,0,0,0,293.257,220.038Z" transform="translate(-129.861 -65.011)" fill="#ff9600" stroke="#fd9626" stroke-width="0.35"/>
            <path id="Path_2024" data-name="Path 2024" d="M163.4,167.9c-6.143,0-11.384-4.546-13.959-7.263a3.1,3.1,0,0,1-.077-4.211c2.576-2.936,7.842-7.855,14.023-7.855s11.448,4.919,14.023,7.855a3.1,3.1,0,0,1-.077,4.211c-2.55,2.756-7.791,7.263-13.934,7.263Zm0-18.029c-5.679,0-10.624,4.649-13.058,7.418a1.816,1.816,0,0,0,0,2.472c2.434,2.576,7.366,6.864,13.02,6.864s10.585-4.3,13.02-6.864h0a1.815,1.815,0,0,0,0-2.472c-2.356-2.769-7.3-7.418-12.981-7.418Z" fill="#ff9600" stroke="#fd9626" stroke-width="0.35"/>
          </g>
        </g>
      </g>
    </g>
  </g>
</svg>
