<svg xmlns="http://www.w3.org/2000/svg" width="112.333" height="75.85" viewBox="0 0 112.333 75.85">
  <g id="Group_1516" data-name="Group 1516" transform="translate(-145.139 97.977)">
    <path id="Path_1593" data-name="Path 1593" d="M9.438-34.31c-2.707,0-6.148,3.777-6.148,6.69a3.154,3.154,0,0,0,2.823,3.029c1.611,0,3.532-1.289,3.532-2.681a1.694,1.694,0,0,0-.232-.967,5.94,5.94,0,0,1-3.674,1.689.728.728,0,0,1-.657-.76c0-1.727,2.694-4.95,4.666-4.95.528,0,.9.722.9.722a1.241,1.241,0,0,0,.606-.967A1.741,1.741,0,0,0,9.438-34.31Zm4.06,7.953c-.387,0-.619-.412-.619-.786,0-1.908,1.882-5.4,3.738-5.4.4,0,.619.438.619.812C17.236-29.837,15.367-26.357,13.5-26.357Zm2.849-7.927c-2.8,0-5.53,4.009-5.53,6.664a3.231,3.231,0,0,0,2.939,3c2.694,0,5.53-3.97,5.53-6.664A3.231,3.231,0,0,0,16.347-34.284Zm9.177,8.3c0,.876,1.276,1.469,1.8,1.469.722-3.48,2.823-8.2,2.823-8.894,0-.49-.954-.812-1.457-.812,0,0-3.209,3.532-4.937,6.007.219-1.624.941-4.189.941-5.066,0-.554-1.005-.941-1.74-.941,0,0-4.64,7.527-4.64,8.391,0,.8.992,1.341,1.547,1.341.683-1.714,1.482-3.48,2.2-4.962a21.282,21.282,0,0,0-.567,3.287c0,.992,1.2,1.676,1.779,1.676a44.027,44.027,0,0,1,3.3-4.782A17.146,17.146,0,0,0,25.524-25.983Zm10.479,0c0,.876,1.276,1.469,1.8,1.469.722-3.48,2.823-8.2,2.823-8.894,0-.49-.954-.812-1.457-.812,0,0-3.209,3.532-4.937,6.007.219-1.624.941-4.189.941-5.066,0-.554-1.005-.941-1.74-.941,0,0-4.64,7.527-4.64,8.391,0,.8.992,1.341,1.547,1.341.683-1.714,1.482-3.48,2.2-4.962a21.282,21.282,0,0,0-.567,3.287c0,.992,1.2,1.676,1.779,1.676a44.026,44.026,0,0,1,3.3-4.782A17.146,17.146,0,0,0,36-25.983Zm6.87,1.379c3.351,0,6.29-8.236,6.29-8.662,0-.5-1.186-.954-1.792-.954-.013.026-3.145,7.94-4.64,7.94-.387,0-.606-.412-.606-.786,0-1.882,2.642-5.581,2.642-6.251,0-.5-1.3-.9-1.792-.9,0,0-3.055,4.937-3.055,6.6A3.234,3.234,0,0,0,42.874-24.6Zm9.01-.915c.155.567,1.109.954,1.908.954.554-1.779,3.648-7.411,3.648-8.52,0-.786-1.173-1.147-1.689-1.147a32.8,32.8,0,0,1-1.959,6.161c-.168-1.547-.5-4.215-.67-5.014a1.818,1.818,0,0,0-1.676-1.16s-3.79,7.373-3.79,8.378c0,.825,1.147,1.379,1.637,1.379.528-1.779,1.328-4.125,1.933-5.736C51.445-28.1,51.755-26.1,51.883-25.519Zm6.174,1.07c1.121-3.764,3.622-8.327,3.622-8.958,0-.49-1.186-.812-1.56-.812,0,0-3.854,7.192-3.854,8.314C56.266-25.055,57.452-24.488,58.058-24.45Zm8.8-9.86c-2.707,0-6.148,3.777-6.148,6.69a3.154,3.154,0,0,0,2.823,3.029c1.611,0,3.532-1.289,3.532-2.681a1.694,1.694,0,0,0-.232-.967,5.94,5.94,0,0,1-3.674,1.689.728.728,0,0,1-.657-.76c0-1.727,2.694-4.95,4.666-4.95.528,0,.9.722.9.722a1.241,1.241,0,0,0,.606-.967A1.741,1.741,0,0,0,66.861-34.31ZM72.7-26.937c-.064.438-.193,1.276-.193,1.508,0,.554,1.186.928,1.573.928,0,0,1.624-6.316,1.624-8.056,0-.992-1.328-1.676-1.908-1.676a66.843,66.843,0,0,0-5.066,5.9,4.4,4.4,0,0,0-1.07.18c-.155.168.026.619.232.98a5.67,5.67,0,0,0-.98,1.727c0,.438.709.851,1.276.851,0,0,.709-1.005,1.689-2.32.245.013.58.013.928.013C71.54-26.9,72.288-26.924,72.7-26.937Zm.258-1.431a8.9,8.9,0,0,0-1.276-.064c-.206,0-.438.013-.657.013.889-1.147,1.74-2.153,2.423-2.887C73.28-30.25,73.113-29.257,72.958-28.368Zm5.968-4c-1.276,2.2-3.184,5.684-3.184,6.458,0,.851,1.16,1.418,1.714,1.418a85.013,85.013,0,0,1,3.583-7.85,8.431,8.431,0,0,0,2.526-.245,3.209,3.209,0,0,0-.361-1.521,5.185,5.185,0,0,0-1.74-.142,26.061,26.061,0,0,0-4.666.322c-.219.245.206,1.212.464,1.418A9.518,9.518,0,0,0,78.926-32.364Zm5.311,6.007c-.387,0-.619-.412-.619-.786,0-1.908,1.882-5.4,3.738-5.4.4,0,.619.438.619.812C87.974-29.837,86.105-26.357,84.236-26.357Zm2.849-7.927c-2.8,0-5.53,4.009-5.53,6.664a3.231,3.231,0,0,0,2.939,3c2.694,0,5.53-3.97,5.53-6.664A3.231,3.231,0,0,0,87.085-34.284Zm9.68,9.319a21.456,21.456,0,0,1-1.328-3.377c2.011-.7,3.39-2.178,3.39-3.532a2.733,2.733,0,0,0-2.707-2.41,14.3,14.3,0,0,0-3.158.348c-.142.18-.052.554.116.954-1.147,1.959-3.532,6.213-3.532,7.076s1.16,1.418,1.727,1.418a27.889,27.889,0,0,1,1.5-3.648c.206.013.49.026.709.026a10.3,10.3,0,0,0,1.16,3.351,1.052,1.052,0,0,0,.786.284A2.193,2.193,0,0,0,96.765-24.965Zm-1.959-7.566A3.979,3.979,0,0,1,95.94-32.7a.718.718,0,0,1,.735.773c0,.954-1.392,2.281-3.248,2.153Z" transform="translate(149.035 -13.848)" fill="#730732"/>
    <path id="Path_735" data-name="Path 735" d="M851.161-301.869H962.506a.494.494,0,0,1,.494.494v24.527a.494.494,0,0,1-.494.494H957.45v8.034a.494.494,0,0,1-.323.464.494.494,0,0,1-.547-.143l-7.111-8.354H851.161a.494.494,0,0,1-.494-.494v-24.527A.494.494,0,0,1,851.161-301.869Zm110.85.988H851.655v23.538H949.7a.5.5,0,0,1,.376.174l6.388,7.505v-7.185a.494.494,0,0,1,.494-.494h5.056Z" transform="translate(-705.528 245.698)" fill="#730732"/>
    <path id="Path_1592" data-name="Path 1592" d="M15.773-77.131c-.2,0-.4-.05-.547-.05h-.447c-.2,0-.4-.1-.547-.1a6.392,6.392,0,0,0-.944.2,1.228,1.228,0,0,0-.447.2,2.04,2.04,0,0,0-.547.05,4.693,4.693,0,0,1-.447.149,2.678,2.678,0,0,0-.5.149,3.137,3.137,0,0,0-.447.2.174.174,0,0,1-.1.05l-.149.2c-.05,0-.05.05-.1.05a5.156,5.156,0,0,0-.5.2c-.1.1-.249.149-.4.3a4.7,4.7,0,0,0-.447.149,1.2,1.2,0,0,0-.4.3c-.05,0-.05.05-.1.05l-.249.149a.174.174,0,0,1-.1.05,2.49,2.49,0,0,1-.348.4c-.1.1-.2.149-.348.3l-.7.7a2.841,2.841,0,0,0-.348.4c0,.05-.05.05-.05.1l-.149.2c0,.05-.05.05-.05.1a2.334,2.334,0,0,1-.3.447l-.149.447c-.1.1-.1.3-.2.447-.05.149-.2.249-.3.447,0,.05,0,.05-.05.1v.249c-.05,0-.05.05-.05.1-.05.2-.05.348-.1.5a3.942,3.942,0,0,1-.2.447,1.58,1.58,0,0,0-.149.447v.149l-.05.249v.149c-.1.1-.1.3-.149.447a1.766,1.766,0,0,1-.1.5c0,.149-.05.348-.05.447a2.241,2.241,0,0,1-.149.547v.994a1.234,1.234,0,0,1,.05.447c0,.149.1.3.1.5v.447c0,.2-.1.3-.1.447v.149l.149.2v.6c0,.2-.05.348-.05.5s-.1.348-.1.447a3.169,3.169,0,0,0,.1.447v.547c0,.1-.1.3-.1.447v1.094l-.05.2v.249l-.05.249v.6c0,.149.1.348.1.447v.6l-.05.249v.6a1.865,1.865,0,0,1-.05.5,1.533,1.533,0,0,1-.05.447v.944c.05.2,0,.348.05.447,0,.2.1.348.1.5s-.05.348-.05.447v.149l.05.249v.149a4.692,4.692,0,0,0-.149.447v.944a1.234,1.234,0,0,0,.05.447c0,.2-.1.3-.05.5v.944c0,.149.05.348.05.447v.149l-.05.249v1.094c0,.149.05.249.05.447v.1l.05.249v.1c.05.2-.05.348,0,.5,0,.149.05.348.05.447.1.2,0,.348,0,.5a1.342,1.342,0,0,0,0,.447v.149l-.05.249v.6c.05.1,0,.3,0,.447s.149.3.149.5a1.533,1.533,0,0,0,.05.447.966.966,0,0,0,.447.547h.547a1.187,1.187,0,0,0,.447.1,2.039,2.039,0,0,1,.547.05c.1,0,.3-.05.447-.05h.149l.249.05H7.57c.149,0,.348.1.447.1H9.062c.2,0,.3-.1.5-.149h.5a1.865,1.865,0,0,1,.5-.05h.5a2.039,2.039,0,0,1,.547-.05h.547c.249,0,.4-.5.4-.6,0-.249-.05-.348-.05-.547,0-.149-.1-.249-.1-.5v-.149l.1-.249v-.249l-.1-.3v-.249l.1-.249v-.845l-.1-.3v-.249l.1-.249v-.249l.05-.3v-.1c0-.944.1-1.143,1.094-1.143a2.114,2.114,0,0,0,.547-.1h.646l.249.05h.149c.149,0,.348-.05.547-.05h.646l.249.05h.7a2.809,2.809,0,0,1,1.292.1,3.459,3.459,0,0,1,.249,1.591c0,.149-.05.348-.05.547v.1l.1.3v.1c0,.2-.1.447-.1.6v2.088c0,.994.249,1.094,1.193,1.094l.249-.1h.249l.249.1h.1a2.014,2.014,0,0,0,.547,0,1.666,1.666,0,0,0,.5,0,1.533,1.533,0,0,0,.5.05,1.691,1.691,0,0,0,.5.05h.149l.2.1h.249l.3-.1h2.237l.249-.1h.149c.5,0,.4-.3.4-.944v-.149l-.05-.2v-1.591c0-.1.05-.3.05-.447v-.6l-.05-.249v-.6a1.451,1.451,0,0,0-.1-.447v-.944a1.845,1.845,0,0,0,.1-.447v-.994c0-.05-.05-.845-.05-.944a1.766,1.766,0,0,0,.1-.5c0-.149-.05-.249-.05-.447v-.944c0-.149.05-.348.05-.447v-2.535l-.1-.2v-2.535c0-.1.05-.3.05-.447s.05-.3.05-.5v-.1l-.05-.249v-.249l.05-.2v-.149c0-.149-.05-.348-.05-.447a2.42,2.42,0,0,0,.05-.6l.05-.3a2.42,2.42,0,0,0-.05-.6,3.169,3.169,0,0,1-.1-.447v-1.541l.05-.2v-.149c0-.149.05-.348.05-.447,0-.2-.05-.348,0-.447,0-.2.05-.348.05-.5.05-.149,0-.348.05-.447v-.994c0-.2.1-.348,0-.547a1.452,1.452,0,0,0-.1-.447,1.532,1.532,0,0,0-.05-.5,1.691,1.691,0,0,0-.05-.5v-.149l-.149-.2v-.149c-.05-.149-.05-.348-.1-.447a.183.183,0,0,0-.05-.149v-.249a.183.183,0,0,1-.05-.149c0-.1-.149-.3-.2-.4a11.722,11.722,0,0,0-.6-1.392,1.63,1.63,0,0,0-.3-.4l-.149-.447c0-.05-.05-.05-.05-.1l-.149-.2-.1-.1-.348-.348a2.842,2.842,0,0,1-.348-.4c0-.05-.05-.05-.05-.1l-.149-.149c-.05-.05-.05-.1-.1-.1a.766.766,0,0,0-.348-.348,1.148,1.148,0,0,0-.348-.348c-.1-.149-.3-.2-.4-.3l-.348-.348a5.158,5.158,0,0,1-.5-.2,2.757,2.757,0,0,1-.4-.3,3.138,3.138,0,0,0-.447-.2,2.323,2.323,0,0,0-.5-.249,2.5,2.5,0,0,0-.6-.1l-.2-.149c-.05,0-.1-.05-.149-.05a1.533,1.533,0,0,0-.447-.05,2.114,2.114,0,0,0-.547-.1.74.74,0,0,0-.447-.2c-.2-.05-.3,0-.447-.05a1.864,1.864,0,0,1-.547-.05h-.447c-.2,0-.4.05-.547.05ZM18.258-56.3l-.3.05h-.1a2.015,2.015,0,0,1-.547,0H16.071l-.249.05h-.646l-.4-.05H13.436l-.249.05h-.149a.886.886,0,0,1-.5-.8l-.05-.348V-57.5c0-.149.05-.348.05-.6v-.447a1.234,1.234,0,0,1-.05-.447c0-.149-.1-.3-.1-.5v-.447c0-.149-.05-.3-.05-.5a1.188,1.188,0,0,0,.149-.447,4.306,4.306,0,0,1-.1-.5v-.447c0-.1.1-.3,0-.447,0-.149.1-.3.1-.5v-.845c0-.2-.1-.348,0-.547v-.1l.05-.2v-.1a1.533,1.533,0,0,1,.05-.5c0-.149.05-.348.05-.447v-.7l.149-.3v-.1l.149-.547.3-.547.1-.1.149-.2c.05-.05.1-.05.1-.1a2.968,2.968,0,0,1,.547-.3.934.934,0,0,1,.5-.2,2.241,2.241,0,0,1,.547-.149h.7l.3.05h.1a2.423,2.423,0,0,0,.547.2.174.174,0,0,1,.1.05l.249.2a.662.662,0,0,1,.249.149l.2.149c.05.05.1.05.149.1.1.1.249.149.4.3.1.149.3.3.348.4a2.664,2.664,0,0,0,.249.547,1.894,1.894,0,0,1,.149.5,2.228,2.228,0,0,1,.05.6c0,.3-.05.447-.05.6v.646a1.931,1.931,0,0,0,0,.547c0,.2.05.447.05.6v.8l-.05.3v.3l.1.348v.746a3.058,3.058,0,0,1-.05.646v.149l.05.249v1.839a1.691,1.691,0,0,1-.05.5C18.954-56.75,18.9-56.3,18.258-56.3Zm34.9-19.188c.05-.1-.149-.4-.249-.4h-.1l-.149.05h-.1c-.1,0-.249-.05-.4-.05H51.017c-.1,0-.249-.05-.4-.05-.1,0-.2.1-.348.1h-.1l-.2-.05h-1.64a3.838,3.838,0,0,1-.5.05l-.149.05h-.5a1.264,1.264,0,0,0-.348-.1c-.149,0-.3.05-.4.05h-.1l-.2-.05h-.2l-.2.05c-.249,0-.547.1-.6.348a2.046,2.046,0,0,1-.149.4v.4l-.149.4a2.046,2.046,0,0,1-.149.4v.4a3.429,3.429,0,0,0-.149.4v.4a1.187,1.187,0,0,0-.1.447.451.451,0,0,0-.149.348v.4a1.4,1.4,0,0,0-.05.4,1.4,1.4,0,0,0-.05.4c-.05.2-.149.3-.149.447a1.094,1.094,0,0,0-.05.4,3.426,3.426,0,0,0-.149.4,1.1,1.1,0,0,1-.05.4c0,.149-.149.249-.149.348a4.824,4.824,0,0,0-.05.845.969.969,0,0,1-.05.4c0,.2-.1.3-.1.4a.183.183,0,0,0-.05.149v.149a.183.183,0,0,1-.05.149,1.1,1.1,0,0,1-.05.4c0,.1-.1.249-.1.4a.969.969,0,0,0-.05.4.818.818,0,0,1-.1.447,1.4,1.4,0,0,1-.05.4,1.053,1.053,0,0,1-.149.348,1.1,1.1,0,0,0-.05.4c-.1.1-.1.3-.149.4v.447a.969.969,0,0,0-.05.4.936.936,0,0,0-.1.4c-.05.1,0,.249,0,.4-.05.149-.05.249-.149.348a1.234,1.234,0,0,1-.05.447,1.1,1.1,0,0,1-.05.4c0,.149-.05.3-.05.4,0,.2-.05.3-.05.4a1.3,1.3,0,0,0-.249.447,1.4,1.4,0,0,1-.05.4.971.971,0,0,1-.05.348v.4c-.1.2-.1.3-.149.4a1.187,1.187,0,0,1-.1.447v.4a2.077,2.077,0,0,1-.2.5c0,.249-.348.348-.447.2a1.078,1.078,0,0,1-.249-.7,1.094,1.094,0,0,0-.05-.4,1.844,1.844,0,0,0-.1-.447c0-.1-.05-.2-.05-.348s-.1-.3-.1-.4a1.094,1.094,0,0,1-.05-.4,1.537,1.537,0,0,1-.1-.4,1.188,1.188,0,0,1-.149-.447.719.719,0,0,1-.1-.348.969.969,0,0,0-.05-.4c0-.2-.05-.3-.05-.4a1.4,1.4,0,0,1-.05-.4,1.133,1.133,0,0,1-.149-.547l-.05-.2v-.5a1.235,1.235,0,0,1-.05-.4,3.14,3.14,0,0,0-.2-.447.719.719,0,0,1-.1-.348,1.06,1.06,0,0,1,0-.4,1.537,1.537,0,0,1-.1-.4V-65c0-.2-.149-.3-.149-.447a1.1,1.1,0,0,1-.05-.4,1.1,1.1,0,0,1-.05-.4c-.05-.1-.05-.249-.1-.4a.742.742,0,0,0-.149-.348v-.447a1.236,1.236,0,0,1-.05-.4c-.05-.149-.05-.3-.1-.4,0-.2-.149-.3-.149-.4a1.376,1.376,0,0,1-.05-.447.969.969,0,0,1-.05-.4.922.922,0,0,1-.1-.348.793.793,0,0,1-.149-.4c-.05-.2,0-.3-.05-.4a1.187,1.187,0,0,0-.1-.447c0-.1-.05-.249-.05-.4-.1-.1,0-.3-.1-.4,0-.1-.05-.249-.05-.4a1.265,1.265,0,0,1-.1-.348,1.534,1.534,0,0,1-.05-.447,1.1,1.1,0,0,1-.05-.4.536.536,0,0,0-.1-.4c0-.2-.05-.3-.05-.4A1.188,1.188,0,0,1,37.2-74.7a.183.183,0,0,1-.05-.149.448.448,0,0,0-.05-.249c0-.1-.05-.2-.05-.4-.05-.1-.3-.348-.447-.348a1.061,1.061,0,0,0-.4,0h-.348c-.149,0-.249-.05-.447-.05H35.06a.741.741,0,0,0-.4-.149h-.1l-.149.1h-.2l-.2-.1h-.1c-.149,0-.249.1-.348.1h-.447c-.1-.1-.2-.1-.4-.1a.97.97,0,0,1-.348-.05H30.437c-.1,0-.2.05-.4.05h-.447l-.149.1A.446.446,0,0,0,29-75.49a1.537,1.537,0,0,0,.1.4,2.061,2.061,0,0,0,.149.8c0,.1.05.2.05.4.05.1,0,.2.05.348a1.17,1.17,0,0,0,.1.4.473.473,0,0,0,.1.348.855.855,0,0,0,.05.4c0,.149.1.249.1.348.05.2,0,.3.05.547l.05.2a1.133,1.133,0,0,1,.149.547l.05.2c0,.249.1.348.1.447a1.4,1.4,0,0,1,.05.4.661.661,0,0,1,.149.4,4.3,4.3,0,0,1,.1.5v.2a.376.376,0,0,1,.05.2l.149.149a2.059,2.059,0,0,1,.05.5c.05.149,0,.249.05.447a1.264,1.264,0,0,0,.1.348c.1.1.1.2.1.4a1.053,1.053,0,0,1,.149.348.969.969,0,0,1,.05.4c.05.1.05.249.149.348,0,.149.1.249.1.348.05.2,0,.3.05.4v.1l.05.249v.1a.751.751,0,0,1,.2.447v.2a.376.376,0,0,1,.05.2l.05.149c.05.3.05.4.149.5a1.58,1.58,0,0,0,.149.447v.249c.05,0,.05.05.05.1a.661.661,0,0,0,.149.348.969.969,0,0,0,.05.4.922.922,0,0,0,.1.348.564.564,0,0,0,.149.4.719.719,0,0,0,.1.348c.05.149.05.3.1.4a1.094,1.094,0,0,0,.05.4.6.6,0,0,0,.1.4,1.094,1.094,0,0,0,.05.4.969.969,0,0,1,.05.4,2.423,2.423,0,0,0,.149.348,1.58,1.58,0,0,1,.149.447,1.537,1.537,0,0,0,.1.4,2.13,2.13,0,0,0,.149.5l.05.149a2.55,2.55,0,0,1,.05.5,4.694,4.694,0,0,0,.149.447.668.668,0,0,0,.1.4,2.255,2.255,0,0,1,.1.4v.4a3.168,3.168,0,0,0,.1.348c.05.2.149.3.149.447a1.17,1.17,0,0,1,.1.4,1.1,1.1,0,0,1,.05.4c.05.1.05.3.149.4a.718.718,0,0,0,.1.348,1.187,1.187,0,0,0,.1.447c0,.1.05.249.05.4.1.1,0,.3.1.4a1.17,1.17,0,0,0,.1.4,1.169,1.169,0,0,0,.249.8,2.8,2.8,0,0,1,.1.5v.2a2.059,2.059,0,0,1,.05.5c.05.149,0,.3.05.4v.1l.1.249v.1a.742.742,0,0,1,.149.348c.05.149,0,.3.05.4,0,.2.05.3.05.4a.993.993,0,0,1,.149.4,1.187,1.187,0,0,1,.1.447,2.023,2.023,0,0,1,.1.5l.149.149v.2l.05.2a2.023,2.023,0,0,0,.1.5,1.188,1.188,0,0,1,.149.447v.4a.921.921,0,0,1,.1.348,1.4,1.4,0,0,1,.05.4,1.4,1.4,0,0,1,.05.4.944.944,0,0,1,.149.447,1.264,1.264,0,0,1,.1.348,1.215,1.215,0,0,0,.547.447h3.181l.2.05h.7l.2-.05h.646l.249.05h.2l.2-.05h1.094l.2.05c.249,0,.6-.1.6-.4a1.053,1.053,0,0,0,.149-.348,3.425,3.425,0,0,0,.149-.4,1.094,1.094,0,0,1,.05-.4.419.419,0,0,1,.1-.348,2.565,2.565,0,0,1,.1-.547v-.2a2.188,2.188,0,0,0,.1-.5c.05-.149.05-.249.149-.348a.855.855,0,0,1,.05-.4c0-.149.1-.249.1-.447a.854.854,0,0,0,.05-.4,1.948,1.948,0,0,0,.2-.447v-.2a3.09,3.09,0,0,1,.149-.5v-.1l.1-.2v-.5c.05-.149.05-.3.1-.4a1.537,1.537,0,0,1,.1-.4.737.737,0,0,1,.05-.348c0-.2.149-.3.149-.447a2.258,2.258,0,0,0,.1-.4.719.719,0,0,0,.1-.348c.1-.1,0-.3.1-.5l.05-.2a1.5,1.5,0,0,1,.149-.447c0-.2-.05-.3,0-.447,0-.149.149-.249.2-.4v-.4a.921.921,0,0,0,.1-.348c.05-.2.05-.3.149-.4,0-.149.1-.249.1-.447a.737.737,0,0,0,.05-.348,1.235,1.235,0,0,0,.05-.4,2.952,2.952,0,0,1,.2-.4,1.536,1.536,0,0,1,.1-.4v-.348c.05-.2.149-.3.2-.547v-.2a2.059,2.059,0,0,0,.05-.5,1.053,1.053,0,0,0,.149-.348,2.048,2.048,0,0,0,.149-.4c0-.149.05-.249.05-.447a3.171,3.171,0,0,0,.1-.348.969.969,0,0,1,.05-.4c0-.1.149-.249.149-.4a1.1,1.1,0,0,0,.05-.4.97.97,0,0,0,.05-.348,1.188,1.188,0,0,1,.149-.447,2.129,2.129,0,0,1,.149-.5v-.149a2.55,2.55,0,0,0,.05-.5c.05-.2.05-.3.149-.4a1.845,1.845,0,0,1,.1-.447.97.97,0,0,1,.05-.348c.05-.149.2-.2.249-.5v-.149c.05-.3.149-.4.149-.5v-.447c0-.1.1-.2.149-.4a3.171,3.171,0,0,0,.1-.348.936.936,0,0,1,.1-.4.536.536,0,0,0,.1-.4,3.17,3.17,0,0,1,.1-.348,1.234,1.234,0,0,1,.05-.447,1.536,1.536,0,0,1,.1-.4c0-.1.1-.249.1-.4a.846.846,0,0,0,.05-.348,1.683,1.683,0,0,1,.149-.4,1.352,1.352,0,0,1,0-.447.778.778,0,0,0,.2-.5v-.149c.05-.149.05-.149.05-.2l.05-.2a2.68,2.68,0,0,0,.149-.5,3.169,3.169,0,0,1,.1-.348,1.234,1.234,0,0,1,.05-.447.77.77,0,0,0,.1-.4,1.246,1.246,0,0,0,.2-.348v-.4a1.488,1.488,0,0,1,.2-.4c0-.149.05-.249.05-.348a1.376,1.376,0,0,0,.05-.447,1.1,1.1,0,0,0,.05-.4,1.246,1.246,0,0,1,.2-.348,1.4,1.4,0,0,0,.05-.4,1.235,1.235,0,0,0,.05-.4l.149-.4v-.4A.661.661,0,0,0,53.155-75.49Z" transform="translate(157.576 -20.697)" fill="#e50e63"/>
    <g id="Group_1318" data-name="Group 1318" transform="translate(210.499 -97.952)">
      <g id="Group_1307" data-name="Group 1307" transform="translate(0 0)">
        <g id="Group_1306" data-name="Group 1306" transform="translate(0 0)">
          <g id="Group_1305" data-name="Group 1305">
            <g id="Group_1304" data-name="Group 1304">
              <path id="Path_727" data-name="Path 727" d="M918.857,449.692h0a19.236,19.236,0,0,0,1.74-4.681c1.107-6.168,4.555-9.711,9.49-9.711,5.219,0,8.667,3.543,9.49,9.742a11.784,11.784,0,0,0,1.708,4.587l.031.032a18.058,18.058,0,0,1,2.72,8.667,13.455,13.455,0,0,1-3.954,9.648,14.447,14.447,0,0,1-19.928,0,12.277,12.277,0,0,1-1.329-1.55,13.544,13.544,0,0,1-2.625-8.1C916.169,455.2,917.624,451.906,918.857,449.692Zm11.229,15.689a7.212,7.212,0,1,0-7.212-7.212A7.209,7.209,0,0,0,930.087,465.382Z" transform="translate(-916.2 -435.3)" fill="#8fd200"/>
            </g>
          </g>
        </g>
        <path id="Union_3" data-name="Union 3" d="M7.252,14.637H7.188A7.32,7.32,0,0,1,2.142,2.143,7.264,7.264,0,0,1,7.188,0h.127A7.317,7.317,0,0,1,14.5,7.319a7.317,7.317,0,0,1-7.188,7.317H7.252Zm0-2.335A4.947,4.947,0,0,0,9.568,11.7l2.137.571a.236.236,0,0,0,.29-.285l-.528-2.113A4.981,4.981,0,0,0,7.252,2.336,4.981,4.981,0,0,0,3.033,9.862l.383.534.468.508.574.486.475.307h0A4.948,4.948,0,0,0,7.252,12.3Z" transform="translate(6.652 15.594)" fill="#9a6e28" stroke="rgba(0,0,0,0)" stroke-miterlimit="10" stroke-width="1"/>
      </g>
    </g>
  </g>
</svg>
