<svg xmlns="http://www.w3.org/2000/svg" width="408.4" height="81.09" viewBox="0 0 408.4 81.09">
  <g id="Group_1413" data-name="Group 1413" transform="translate(0 0)">
    <path id="Path_1593" data-name="Path 1593" d="M17.7-34.31c-6.344,0-14.409,8.851-14.409,15.678,0,3.836,3.595,7.1,6.615,7.1,3.776,0,8.277-3.021,8.277-6.283a3.97,3.97,0,0,0-.544-2.266s-3.9,3.957-8.609,3.957a1.705,1.705,0,0,1-1.541-1.782c0-4.048,6.313-11.6,10.935-11.6,1.239,0,2.115,1.692,2.115,1.692a2.908,2.908,0,0,0,1.42-2.266A4.079,4.079,0,0,0,17.7-34.31Zm9.515,18.638c-.906,0-1.45-.967-1.45-1.843,0-4.471,4.41-12.657,8.76-12.657.936,0,1.45,1.027,1.45,1.9C35.975-23.828,31.595-15.672,27.214-15.672ZM33.89-34.25c-6.555,0-12.959,9.395-12.959,15.617,0,3.836,3.867,7.038,6.887,7.038,6.313,0,12.959-9.3,12.959-15.617C40.778-31.048,36.911-34.25,33.89-34.25ZM55.4-14.8c0,2.054,2.991,3.444,4.229,3.444,1.692-8.156,6.615-19.212,6.615-20.843,0-1.148-2.235-1.9-3.413-1.9,0,0-7.522,8.277-11.57,14.077.514-3.806,2.205-9.817,2.205-11.872,0-1.3-2.356-2.205-4.078-2.205,0,0-10.875,17.641-10.875,19.665,0,1.873,2.326,3.142,3.625,3.142,1.6-4.018,3.474-8.156,5.166-11.63a49.875,49.875,0,0,0-1.329,7.7c0,2.326,2.809,3.927,4.169,3.927A103.18,103.18,0,0,1,57.875-22.5C56.607-19.176,55.4-15.853,55.4-14.8Zm24.559,0c0,2.054,2.991,3.444,4.229,3.444C85.878-19.508,90.8-30.564,90.8-32.2c0-1.148-2.235-1.9-3.413-1.9,0,0-7.522,8.277-11.57,14.077.514-3.806,2.205-9.817,2.205-11.872,0-1.3-2.356-2.205-4.078-2.205,0,0-10.875,17.641-10.875,19.665,0,1.873,2.326,3.142,3.625,3.142,1.6-4.018,3.474-8.156,5.166-11.63a49.876,49.876,0,0,0-1.329,7.7c0,2.326,2.809,3.927,4.169,3.927A103.179,103.179,0,0,1,82.434-22.5C81.165-19.176,79.957-15.853,79.957-14.8Zm16.1,3.232c7.854,0,14.741-19.3,14.741-20.3,0-1.178-2.779-2.235-4.2-2.235-.03.06-7.371,18.608-10.875,18.608-.906,0-1.42-.967-1.42-1.843,0-4.41,6.193-13.08,6.193-14.651,0-1.178-3.051-2.115-4.2-2.115,0,0-7.159,11.57-7.159,15.466C89.14-14.8,92.977-11.564,96.058-11.564Zm21.115-2.145c.362,1.329,2.6,2.235,4.471,2.235,1.3-4.169,8.549-17.369,8.549-19.967,0-1.843-2.749-2.688-3.957-2.688a76.877,76.877,0,0,1-4.592,14.439c-.393-3.625-1.178-9.878-1.571-11.751-.393-1.661-2.417-2.658-3.927-2.719,0,0-8.881,17.279-8.881,19.635,0,1.933,2.688,3.232,3.836,3.232,1.239-4.169,3.111-9.666,4.531-13.442C116.146-19.75,116.871-15.068,117.173-13.708Zm14.47,2.507c2.628-8.821,8.488-19.514,8.488-20.994,0-1.148-2.779-1.9-3.655-1.9,0,0-9.032,16.856-9.032,19.484C127.443-12.621,130.223-11.292,131.642-11.2ZM152.274-34.31c-6.344,0-14.409,8.851-14.409,15.678,0,3.836,3.595,7.1,6.615,7.1,3.776,0,8.277-3.021,8.277-6.283a3.97,3.97,0,0,0-.544-2.266s-3.9,3.957-8.609,3.957a1.705,1.705,0,0,1-1.541-1.782c0-4.048,6.313-11.6,10.935-11.6,1.239,0,2.115,1.692,2.115,1.692a2.908,2.908,0,0,0,1.42-2.266A4.079,4.079,0,0,0,152.274-34.31Zm13.684,17.279c-.151,1.027-.453,2.991-.453,3.534,0,1.3,2.779,2.175,3.685,2.175,0,0,3.806-14.8,3.806-18.88,0-2.326-3.111-3.927-4.471-3.927a156.65,156.65,0,0,0-11.872,13.835,10.3,10.3,0,0,0-2.507.423c-.362.393.06,1.45.544,2.3-1.45,2.054-2.3,3.565-2.3,4.048,0,1.027,1.661,1.994,2.991,1.994,0,0,1.661-2.356,3.957-5.437.574.03,1.359.03,2.175.03C163.24-16.941,164.992-17,165.958-17.031Zm.6-3.353a20.852,20.852,0,0,0-2.991-.151c-.483,0-1.027.03-1.541.03,2.084-2.688,4.078-5.045,5.679-6.767C167.318-24.795,166.925-22.469,166.562-20.384Zm13.986-9.364c-2.991,5.166-7.461,13.322-7.461,15.134,0,1.994,2.719,3.323,4.018,3.323,1.994-5.86,5.679-12.6,8.4-18.4,2.84-.091,5.588-.181,5.921-.574.272-.3-.393-2.779-.846-3.565-.181-.242-1.9-.332-4.078-.332-4.32,0-10.633.423-10.935.755-.514.574.483,2.84,1.087,3.323A22.3,22.3,0,0,0,180.549-29.749Zm12.446,14.077c-.906,0-1.45-.967-1.45-1.843,0-4.471,4.41-12.657,8.76-12.657.936,0,1.45,1.027,1.45,1.9C201.754-23.828,197.374-15.672,192.994-15.672ZM199.67-34.25c-6.555,0-12.959,9.395-12.959,15.617,0,3.836,3.867,7.038,6.887,7.038,6.313,0,12.959-9.3,12.959-15.617C206.557-31.048,202.691-34.25,199.67-34.25Zm22.686,21.84a50.284,50.284,0,0,1-3.111-7.914c4.712-1.631,7.945-5.105,7.945-8.277,0-2.326-2.568-5.649-6.344-5.649-2.719,0-7.22.574-7.4.816-.332.423-.121,1.3.272,2.235-2.688,4.592-8.277,14.56-8.277,16.584,0,1.994,2.719,3.323,4.048,3.323a65.359,65.359,0,0,1,3.5-8.549c.483.03,1.148.06,1.661.06.816,3.867,2.024,7.069,2.719,7.854a2.466,2.466,0,0,0,1.843.665A5.14,5.14,0,0,0,222.356-12.409Zm-4.592-17.732a9.325,9.325,0,0,1,2.658-.393,1.682,1.682,0,0,1,1.722,1.812c0,2.235-3.262,5.347-7.612,5.045Z" transform="translate(158.69 53.089)" fill="#730732"/>
    <path id="Path_735" data-name="Path 735" d="M851.825-301.869H1112.77a1.158,1.158,0,0,1,1.158,1.158v57.481a1.158,1.158,0,0,1-1.158,1.158h-11.849v18.828a1.158,1.158,0,0,1-.758,1.087,1.158,1.158,0,0,1-1.282-.336l-16.665-19.578H851.825a1.158,1.158,0,0,1-1.158-1.158v-57.481A1.158,1.158,0,0,1,851.825-301.869Zm259.786,2.316H852.983v55.164h229.767a1.159,1.159,0,0,1,.882.407l14.972,17.589V-243.23a1.158,1.158,0,0,1,1.158-1.158h11.849Z" transform="translate(-705.528 301.869)" fill="#730732"/>
    <path id="Path_1592" data-name="Path 1592" d="M23.086-77.036c-.325,0-.651-.081-.895-.081h-.732c-.325,0-.651-.163-.895-.163a10.46,10.46,0,0,0-1.545.325,2.009,2.009,0,0,0-.732.325,3.337,3.337,0,0,0-.895.081,7.68,7.68,0,0,1-.732.244,4.383,4.383,0,0,0-.813.244,5.134,5.134,0,0,0-.732.325.284.284,0,0,1-.163.081l-.244.325c-.081,0-.081.081-.163.081a8.436,8.436,0,0,0-.813.325c-.163.163-.407.244-.651.488a7.682,7.682,0,0,0-.732.244,1.957,1.957,0,0,0-.651.488c-.081,0-.081.081-.163.081l-.407.244a.284.284,0,0,1-.163.081,4.073,4.073,0,0,1-.569.651c-.163.163-.325.244-.569.488L8.69-71.017a4.649,4.649,0,0,0-.569.651c0,.081-.081.081-.081.163l-.244.325c0,.081-.081.081-.081.163a3.819,3.819,0,0,1-.488.732l-.244.732c-.163.163-.163.488-.325.732-.081.244-.325.407-.488.732,0,.081,0,.081-.081.163v.407c-.081,0-.081.081-.081.163-.081.325-.081.569-.163.813a6.449,6.449,0,0,1-.325.732,2.585,2.585,0,0,0-.244.732v.244l-.081.407v.244c-.163.163-.163.488-.244.732a2.89,2.89,0,0,1-.163.813c0,.244-.081.569-.081.732a3.667,3.667,0,0,1-.244.895v1.627a2.019,2.019,0,0,1,.081.732c0,.244.163.488.163.813v.732c0,.325-.163.488-.163.732v.244l.244.325v.976c0,.325-.081.569-.081.813s-.163.569-.163.732a5.185,5.185,0,0,0,.163.732v.895c0,.163-.163.488-.163.732v1.789l-.081.325v.407L4.38-46.7v.976c0,.244.163.569.163.732v.976l-.081.407v.976a3.051,3.051,0,0,1-.081.813,2.509,2.509,0,0,1-.081.732v1.545c.081.325,0,.569.081.732,0,.325.163.569.163.813s-.081.569-.081.732v.244l.081.407v.244a7.678,7.678,0,0,0-.244.732v1.545a2.019,2.019,0,0,0,.081.732c0,.325-.163.488-.081.813V-31c0,.244.081.569.081.732v.244l-.081.407v1.789c0,.244.081.407.081.732v.163l.081.407v.163c.081.325-.081.569,0,.813,0,.244.081.569.081.732.163.325,0,.569,0,.813a2.2,2.2,0,0,0,0,.732v.244l-.081.407v.976c.081.163,0,.488,0,.732s.244.488.244.813a2.509,2.509,0,0,0,.081.732,1.58,1.58,0,0,0,.732.895h.895a1.942,1.942,0,0,0,.732.163,3.336,3.336,0,0,1,.895.081c.163,0,.488-.081.732-.081h.244l.407.081h.244c.244,0,.569.163.732.163h1.708c.325,0,.488-.163.813-.244h.813a3.051,3.051,0,0,1,.813-.081h.813a3.336,3.336,0,0,1,.895-.081h.895c.407,0,.651-.813.651-.976,0-.407-.081-.569-.081-.895,0-.244-.163-.407-.163-.813V-21.4l.163-.407v-.407l-.163-.488v-.407l.163-.407V-24.9l-.163-.488V-25.8l.163-.407v-.407L17.8-27.1v-.163c0-1.545.163-1.871,1.789-1.871a3.459,3.459,0,0,0,.895-.163h1.057l.407.081h.244c.244,0,.569-.081.895-.081h1.057l.407.081h1.139a4.6,4.6,0,0,1,2.115.163,5.66,5.66,0,0,1,.407,2.6c0,.244-.081.569-.081.895v.163l.163.488v.163c0,.325-.163.732-.163.976v3.416c0,1.627.407,1.789,1.952,1.789l.407-.163h.407l.407.163h.163a3.3,3.3,0,0,0,.895,0,2.726,2.726,0,0,0,.813,0,2.507,2.507,0,0,0,.813.081,2.767,2.767,0,0,0,.813.081h.244l.325.163h.407l.488-.163h3.66l.407-.163h.244c.813,0,.651-.488.651-1.545v-.244l-.081-.325v-2.6c0-.163.081-.488.081-.732v-.976l-.081-.407v-.976a2.375,2.375,0,0,0-.163-.732v-1.545a3.018,3.018,0,0,0,.163-.732V-31c0-.081-.081-1.383-.081-1.545a2.89,2.89,0,0,0,.163-.813c0-.244-.081-.407-.081-.732v-1.545c0-.244.081-.569.081-.732v-4.148l-.163-.325v-4.148c0-.163.081-.488.081-.732s.081-.488.081-.813V-46.7l-.081-.407v-.407l.081-.325v-.244c0-.244-.081-.569-.081-.732a3.959,3.959,0,0,0,.081-.976l.081-.488a3.96,3.96,0,0,0-.081-.976,5.185,5.185,0,0,1-.163-.732v-2.521l.081-.325v-.244c0-.244.081-.569.081-.732,0-.325-.081-.569,0-.732,0-.325.081-.569.081-.813.081-.244,0-.569.081-.732v-1.627c0-.325.163-.569,0-.895a2.375,2.375,0,0,0-.163-.732,2.507,2.507,0,0,0-.081-.813,2.767,2.767,0,0,0-.081-.813v-.244l-.244-.325v-.244c-.081-.244-.081-.569-.163-.732a.3.3,0,0,0-.081-.244v-.407a.3.3,0,0,1-.081-.244c0-.163-.244-.488-.325-.651a19.178,19.178,0,0,0-.976-2.277,2.666,2.666,0,0,0-.488-.651l-.244-.732c0-.081-.081-.081-.081-.163l-.244-.325-.163-.163-.569-.569a4.65,4.65,0,0,1-.569-.651c0-.081-.081-.081-.081-.163l-.244-.244c-.081-.081-.081-.163-.163-.163a1.254,1.254,0,0,0-.569-.569,1.879,1.879,0,0,0-.569-.569c-.163-.244-.488-.325-.651-.488l-.569-.569a8.441,8.441,0,0,1-.813-.325,4.512,4.512,0,0,1-.651-.488,5.134,5.134,0,0,0-.732-.325,3.8,3.8,0,0,0-.813-.407A4.082,4.082,0,0,0,30-76.06l-.325-.244c-.081,0-.163-.081-.244-.081a2.509,2.509,0,0,0-.732-.081,3.459,3.459,0,0,0-.895-.163,1.211,1.211,0,0,0-.732-.325c-.325-.081-.488,0-.732-.081a3.049,3.049,0,0,1-.895-.081h-.732c-.325,0-.651.081-.895.081Zm4.067,34.078-.488.081H26.5a3.3,3.3,0,0,1-.895,0H23.574l-.407.081H22.11l-.651-.081h-2.2l-.407.081h-.244a1.449,1.449,0,0,1-.813-1.3l-.081-.569v-.244c0-.244.081-.569.081-.976v-.732a2.019,2.019,0,0,1-.081-.732c0-.244-.163-.488-.163-.813V-48.9c0-.244-.081-.488-.081-.813a1.944,1.944,0,0,0,.244-.732,7.045,7.045,0,0,1-.163-.813v-.732c0-.163.163-.488,0-.732,0-.244.163-.488.163-.813v-1.383c0-.325-.163-.569,0-.895v-.163L17.8-56.3v-.163a2.507,2.507,0,0,1,.081-.813c0-.244.081-.569.081-.732v-1.139l.244-.488v-.163l.244-.895.488-.895.163-.163.244-.325c.081-.081.163-.081.163-.163a4.858,4.858,0,0,1,.895-.488,1.529,1.529,0,0,1,.813-.325,3.667,3.667,0,0,1,.895-.244h1.139l.488.081H23.9a3.965,3.965,0,0,0,.895.325.284.284,0,0,1,.163.081l.407.325a1.083,1.083,0,0,1,.407.244l.325.244c.081.081.163.081.244.163.163.163.407.244.651.488.163.244.488.488.569.651a4.359,4.359,0,0,0,.407.895,3.1,3.1,0,0,1,.244.813,3.646,3.646,0,0,1,.081.976c0,.488-.081.732-.081.976v1.057a3.16,3.16,0,0,0,0,.895c0,.325.081.732.081.976v1.3l-.081.488v.488l.163.569v1.22a5,5,0,0,1-.081,1.057v.244l.081.407v3.009a2.767,2.767,0,0,1-.081.813C28.291-43.69,28.21-42.958,27.153-42.958Zm57.1-31.394C84.329-74.515,84-75,83.841-75h-.163l-.244.081h-.163c-.163,0-.407-.081-.651-.081H80.75c-.163,0-.407-.081-.651-.081-.163,0-.325.163-.569.163h-.163L79.043-75H76.359a6.279,6.279,0,0,1-.813.081l-.244.081h-.813A2.069,2.069,0,0,0,73.919-75c-.244,0-.488.081-.651.081h-.163L72.78-75h-.325l-.325.081c-.407,0-.895.163-.976.569a3.348,3.348,0,0,1-.244.651v.651l-.244.651a3.349,3.349,0,0,1-.244.651v.651a5.609,5.609,0,0,0-.244.651v.651a1.943,1.943,0,0,0-.163.732.738.738,0,0,0-.244.569v.651a2.289,2.289,0,0,0-.081.651,2.289,2.289,0,0,0-.081.651c-.081.325-.244.488-.244.732a1.791,1.791,0,0,0-.081.651,5.6,5.6,0,0,0-.244.651,1.791,1.791,0,0,1-.081.651c0,.244-.244.407-.244.569a7.893,7.893,0,0,0-.081,1.383,1.586,1.586,0,0,1-.081.651c0,.325-.163.488-.163.651a.3.3,0,0,0-.081.244v.244a.3.3,0,0,1-.081.244,1.791,1.791,0,0,1-.081.651c0,.163-.163.407-.163.651a1.585,1.585,0,0,0-.081.651,1.338,1.338,0,0,1-.163.732,2.289,2.289,0,0,1-.081.651,1.722,1.722,0,0,1-.244.569,1.791,1.791,0,0,0-.081.651c-.163.163-.163.488-.244.651v.732a1.585,1.585,0,0,0-.081.651,1.532,1.532,0,0,0-.163.651c-.081.163,0,.407,0,.651-.081.244-.081.407-.244.569a2.019,2.019,0,0,1-.081.732,1.791,1.791,0,0,1-.081.651c0,.244-.081.488-.081.651,0,.325-.081.488-.081.651a2.132,2.132,0,0,0-.407.732,2.289,2.289,0,0,1-.081.651,1.588,1.588,0,0,1-.081.569v.651c-.163.325-.163.488-.244.651a1.942,1.942,0,0,1-.163.732v.651a3.4,3.4,0,0,1-.325.813c0,.407-.569.569-.732.325a1.763,1.763,0,0,1-.407-1.139,1.791,1.791,0,0,0-.081-.651,3.018,3.018,0,0,0-.163-.732c0-.163-.081-.325-.081-.569s-.163-.488-.163-.651a1.791,1.791,0,0,1-.081-.651A2.514,2.514,0,0,1,63.1-48a1.943,1.943,0,0,1-.244-.732,1.176,1.176,0,0,1-.163-.569,1.586,1.586,0,0,0-.081-.651c0-.325-.081-.488-.081-.651a2.289,2.289,0,0,1-.081-.651,1.854,1.854,0,0,1-.244-.895l-.081-.325v-.813a2.021,2.021,0,0,1-.081-.651,5.136,5.136,0,0,0-.325-.732,1.176,1.176,0,0,1-.163-.569,1.735,1.735,0,0,1,0-.651,2.514,2.514,0,0,1-.163-.651v-.651c0-.325-.244-.488-.244-.732a1.791,1.791,0,0,1-.081-.651,1.791,1.791,0,0,1-.081-.651c-.081-.163-.081-.407-.163-.651a1.214,1.214,0,0,0-.244-.569v-.732a2.021,2.021,0,0,1-.081-.651c-.081-.244-.081-.488-.163-.651,0-.325-.244-.488-.244-.651a2.251,2.251,0,0,1-.081-.732,1.586,1.586,0,0,1-.081-.651,1.508,1.508,0,0,1-.163-.569,1.3,1.3,0,0,1-.244-.651c-.081-.325,0-.488-.081-.651a1.942,1.942,0,0,0-.163-.732c0-.163-.081-.407-.081-.651-.163-.163,0-.488-.163-.651,0-.163-.081-.407-.081-.651a2.069,2.069,0,0,1-.163-.569,2.509,2.509,0,0,1-.081-.732,1.791,1.791,0,0,1-.081-.651.876.876,0,0,0-.163-.651c0-.325-.081-.488-.081-.651a1.943,1.943,0,0,1-.244-.732.3.3,0,0,1-.081-.244.733.733,0,0,0-.081-.407c0-.163-.081-.325-.081-.651-.081-.163-.488-.569-.732-.569a1.735,1.735,0,0,0-.651,0h-.569c-.244,0-.407-.081-.732-.081h-.569a1.212,1.212,0,0,0-.651-.244H53.83l-.244.163H53.26l-.325-.163h-.163c-.244,0-.407.163-.569.163h-.732c-.163-.163-.325-.163-.651-.163a1.588,1.588,0,0,1-.569-.081H47.079c-.163,0-.325.081-.651.081H45.7l-.244.163a.729.729,0,0,0-.732.732,2.514,2.514,0,0,0,.163.651,3.372,3.372,0,0,0,.244,1.3c0,.163.081.325.081.651.081.163,0,.325.081.569a1.914,1.914,0,0,0,.163.651.774.774,0,0,0,.163.569,1.4,1.4,0,0,0,.081.651c0,.244.163.407.163.569.081.325,0,.488.081.895l.081.325a1.854,1.854,0,0,1,.244.895l.081.325c0,.407.163.569.163.732a2.289,2.289,0,0,1,.081.651,1.082,1.082,0,0,1,.244.651,7.042,7.042,0,0,1,.163.813v.325a.615.615,0,0,1,.081.325l.244.244a3.369,3.369,0,0,1,.081.813c.081.244,0,.407.081.732a2.069,2.069,0,0,0,.163.569c.163.163.163.325.163.651a1.722,1.722,0,0,1,.244.569,1.586,1.586,0,0,1,.081.651c.081.163.081.407.244.569,0,.244.163.407.163.569.081.325,0,.488.081.651v.163l.081.407v.163a1.229,1.229,0,0,1,.325.732V-55a.615.615,0,0,1,.081.325l.081.244c.081.488.081.651.244.813a2.585,2.585,0,0,0,.244.732v.407c.081,0,.081.081.081.163a1.081,1.081,0,0,0,.244.569,1.586,1.586,0,0,0,.081.651,1.508,1.508,0,0,0,.163.569.924.924,0,0,0,.244.651,1.176,1.176,0,0,0,.163.569c.081.244.081.488.163.651A1.791,1.791,0,0,0,50.9-48a.978.978,0,0,0,.163.651,1.791,1.791,0,0,0,.081.651,1.586,1.586,0,0,1,.081.651,3.966,3.966,0,0,0,.244.569,2.585,2.585,0,0,1,.244.732,2.514,2.514,0,0,0,.163.651,3.485,3.485,0,0,0,.244.813l.081.244a4.172,4.172,0,0,1,.081.813,7.68,7.68,0,0,0,.244.732,1.094,1.094,0,0,0,.163.651,3.689,3.689,0,0,1,.163.651v.651a5.184,5.184,0,0,0,.163.569c.081.325.244.488.244.732a1.914,1.914,0,0,1,.163.651,1.791,1.791,0,0,1,.081.651c.081.163.081.488.244.651a1.175,1.175,0,0,0,.163.569,1.942,1.942,0,0,0,.163.732c0,.163.081.407.081.651.163.163,0,.488.163.651a1.914,1.914,0,0,0,.163.651,1.913,1.913,0,0,0,.407,1.3,4.578,4.578,0,0,1,.163.813v.325a3.369,3.369,0,0,1,.081.813c.081.244,0,.488.081.651v.163l.163.407v.163a1.215,1.215,0,0,1,.244.569c.081.244,0,.488.081.651,0,.325.081.488.081.651a1.624,1.624,0,0,1,.244.651,1.942,1.942,0,0,1,.163.732,3.309,3.309,0,0,1,.163.813l.244.244v.325l.081.325a3.309,3.309,0,0,0,.163.813,1.943,1.943,0,0,1,.244.732v.651a1.508,1.508,0,0,1,.163.569,2.289,2.289,0,0,1,.081.651,2.289,2.289,0,0,1,.081.651,1.544,1.544,0,0,1,.244.732,2.069,2.069,0,0,1,.163.569,1.988,1.988,0,0,0,.895.732h5.205l.325.081h1.139l.325-.081h1.057l.407.081h.325l.325-.081h1.789l.325.081c.407,0,.976-.163.976-.651a1.722,1.722,0,0,0,.244-.569,5.6,5.6,0,0,0,.244-.651,1.791,1.791,0,0,1,.081-.651.686.686,0,0,1,.163-.569,4.2,4.2,0,0,1,.163-.895v-.325a3.58,3.58,0,0,0,.163-.813c.081-.244.081-.407.244-.569a1.4,1.4,0,0,1,.081-.651c0-.244.163-.407.163-.732a1.4,1.4,0,0,0,.081-.651,3.187,3.187,0,0,0,.325-.732v-.325a5.054,5.054,0,0,1,.244-.813v-.163l.163-.325v-.813c.081-.244.081-.488.163-.651a2.514,2.514,0,0,1,.163-.651,1.206,1.206,0,0,1,.081-.569c0-.325.244-.488.244-.732a3.693,3.693,0,0,0,.163-.651,1.176,1.176,0,0,0,.163-.569c.163-.163,0-.488.163-.813l.081-.325a2.458,2.458,0,0,1,.244-.732c0-.325-.081-.488,0-.732,0-.244.244-.407.325-.651v-.651a1.508,1.508,0,0,0,.163-.569c.081-.325.081-.488.244-.651,0-.244.163-.407.163-.732a1.206,1.206,0,0,0,.081-.569,2.021,2.021,0,0,0,.081-.651,4.829,4.829,0,0,1,.325-.651,2.513,2.513,0,0,1,.163-.651v-.569c.081-.325.244-.488.325-.895v-.325a3.368,3.368,0,0,0,.081-.813,1.723,1.723,0,0,0,.244-.569,3.35,3.35,0,0,0,.244-.651c0-.244.081-.407.081-.732a5.189,5.189,0,0,0,.163-.569,1.585,1.585,0,0,1,.081-.651c0-.163.244-.407.244-.651a1.791,1.791,0,0,0,.081-.651A1.588,1.588,0,0,0,77.9-48a1.944,1.944,0,0,1,.244-.732,3.484,3.484,0,0,1,.244-.813v-.244a4.172,4.172,0,0,0,.081-.813c.081-.325.081-.488.244-.651a3.018,3.018,0,0,1,.163-.732,1.588,1.588,0,0,1,.081-.569c.081-.244.325-.325.407-.813v-.244c.081-.488.244-.651.244-.813v-.732c0-.163.163-.325.244-.651a5.188,5.188,0,0,0,.163-.569,1.532,1.532,0,0,1,.163-.651.876.876,0,0,0,.163-.651,5.185,5.185,0,0,1,.163-.569,2.019,2.019,0,0,1,.081-.732,2.514,2.514,0,0,1,.163-.651c0-.163.163-.407.163-.651a1.384,1.384,0,0,0,.081-.569,2.753,2.753,0,0,1,.244-.651,2.211,2.211,0,0,1,0-.732,1.273,1.273,0,0,0,.325-.813v-.244c.081-.244.081-.244.081-.325l.081-.325a4.384,4.384,0,0,0,.244-.813,5.184,5.184,0,0,1,.163-.569,2.019,2.019,0,0,1,.081-.732,1.26,1.26,0,0,0,.163-.651,2.038,2.038,0,0,0,.325-.569v-.651a2.435,2.435,0,0,1,.325-.651c0-.244.081-.407.081-.569a2.252,2.252,0,0,0,.081-.732,1.791,1.791,0,0,0,.081-.651A2.039,2.039,0,0,1,83.6-71.1a2.289,2.289,0,0,0,.081-.651,2.021,2.021,0,0,0,.081-.651L84-73.051V-73.7A1.082,1.082,0,0,0,84.248-74.352Z" transform="translate(-4.276 77.28)" fill="#e50e63"/>
    <g id="Group_1318" data-name="Group 1318" transform="translate(79.593 0.041)">
      <g id="Group_1307" data-name="Group 1307" transform="translate(0 0)">
        <g id="Group_1306" data-name="Group 1306" transform="translate(0 0)">
          <g id="Group_1305" data-name="Group 1305">
            <g id="Group_1304" data-name="Group 1304">
              <path id="Path_727" data-name="Path 727" d="M920.548,458.847h0a31.475,31.475,0,0,0,2.847-7.659c1.812-10.092,7.453-15.888,15.526-15.888,8.539,0,14.18,5.8,15.526,15.94a19.28,19.28,0,0,0,2.795,7.5l.051.052c1.346,2.225,4.451,8.022,4.451,14.18a22.014,22.014,0,0,1-6.469,15.785,23.638,23.638,0,0,1-32.6,0,20.073,20.073,0,0,1-2.174-2.536,22.159,22.159,0,0,1-4.3-13.249C916.149,467.852,918.53,462.47,920.548,458.847Zm18.373,25.67a11.8,11.8,0,1,0-11.8-11.8A11.795,11.795,0,0,0,938.92,484.517Z" transform="translate(-916.2 -435.3)" fill="#8fd200"/>
            </g>
          </g>
        </g>
        <path id="Union_3" data-name="Union 3" d="M11.865,23.948h-.1v0A11.976,11.976,0,0,1,3.505,3.507,11.885,11.885,0,0,1,11.761,0V0h.207V0A11.971,11.971,0,0,1,23.729,11.974,11.971,11.971,0,0,1,11.968,23.946v0Zm0-3.821a8.093,8.093,0,0,0,3.79-.991l3.5.934a.386.386,0,0,0,.474-.467l-.864-3.457a8.15,8.15,0,0,0-6.9-12.323,8.15,8.15,0,0,0-6.9,12.314l.626.873.767.831.939.795.778.5h0A8.1,8.1,0,0,0,11.865,20.127Z" transform="translate(10.884 25.514)" fill="#9a6e28" stroke="rgba(0,0,0,0)" stroke-miterlimit="10" stroke-width="1"/>
      </g>
    </g>
    <path id="Path_1594" data-name="Path 1594" d="M-142.014-5.793h4.228a3.008,3.008,0,0,0,3.134-3.045,2.432,2.432,0,0,0-2.07-2.557,2.082,2.082,0,0,0,1.316-2.07,2.71,2.71,0,0,0-2.883-2.631h-3.725Zm1.848-6.15v-2.483h1.641a1.235,1.235,0,0,1,1.316,1.212,1.251,1.251,0,0,1-1.33,1.271Zm0,4.479v-2.927h2.055a1.49,1.49,0,0,1,1.626,1.449A1.508,1.508,0,0,1-138.1-7.464Zm7.007,3.163v1.552a3.111,3.111,0,0,0,.872.118,2.5,2.5,0,0,0,1.789-.621,3.518,3.518,0,0,0,.8-1.33l3.341-8.663h-1.789L-130.2-7.626l-2.188-5.617h-1.789l3.119,7.731-.192.532a1.288,1.288,0,0,1-.429.636,1.121,1.121,0,0,1-.65.163A2.61,2.61,0,0,1-133.159-4.3Zm11.87-1.493h1.951l.843-2.055h4.583l.843,2.055h1.951l-4.3-10.3h-1.567Zm3.37-3.577,1.715-4.2,1.715,4.2Zm8.958,3.577h1.493l3.193-7.45h-1.833l-2.1,5.056-2.114-5.056h-1.833Zm4.745-3.725a3.964,3.964,0,0,0,4.065,3.947,3.973,3.973,0,0,0,4.065-3.947,3.973,3.973,0,0,0-4.065-3.947A3.964,3.964,0,0,0-104.215-9.519Zm1.759,0a2.279,2.279,0,0,1,2.306-2.336,2.288,2.288,0,0,1,2.306,2.336,2.288,2.288,0,0,1-2.306,2.336A2.279,2.279,0,0,1-102.456-9.519Zm7.288-.015a3.933,3.933,0,0,0,4.05,3.947,3.917,3.917,0,0,0,2.986-1.286l-1.094-1.138a2.5,2.5,0,0,1-1.892.813,2.258,2.258,0,0,1-2.291-2.336,2.258,2.258,0,0,1,2.291-2.336,2.5,2.5,0,0,1,1.892.813l1.094-1.138a3.917,3.917,0,0,0-2.986-1.286A3.933,3.933,0,0,0-95.168-9.533Zm7.672.015a3.752,3.752,0,0,0,3.725,3.9,2.872,2.872,0,0,0,2.557-1.168,1.42,1.42,0,0,0,.606.9,2.038,2.038,0,0,0,1.035.237,2.6,2.6,0,0,0,.872-.118V-7.2a3.111,3.111,0,0,1-.37.03c-.4,0-.547-.251-.547-.872v-5.2h-1.774v1.079a2.416,2.416,0,0,0-2.38-1.242A3.749,3.749,0,0,0-87.5-9.519Zm1.759,0a2.189,2.189,0,0,1,2.2-2.276,2.232,2.232,0,0,1,2.277,2.276,2.232,2.232,0,0,1-2.277,2.277A2.189,2.189,0,0,1-85.737-9.519Zm7.583,0a3.752,3.752,0,0,0,3.725,3.9,2.872,2.872,0,0,0,2.557-1.168,1.42,1.42,0,0,0,.606.9,2.038,2.038,0,0,0,1.035.237,2.6,2.6,0,0,0,.872-.118V-7.2a3.112,3.112,0,0,1-.37.03c-.4,0-.547-.251-.547-.872V-16.1h-1.774v3.932a2.416,2.416,0,0,0-2.38-1.242A3.749,3.749,0,0,0-78.153-9.519Zm1.759,0a2.189,2.189,0,0,1,2.2-2.276,2.232,2.232,0,0,1,2.277,2.276,2.232,2.232,0,0,1-2.277,2.277A2.189,2.189,0,0,1-76.394-9.519Zm7.539,0A3.964,3.964,0,0,0-64.79-5.572a3.973,3.973,0,0,0,4.065-3.947,3.973,3.973,0,0,0-4.065-3.947A3.964,3.964,0,0,0-68.855-9.519Zm1.759,0a2.279,2.279,0,0,1,2.306-2.336,2.288,2.288,0,0,1,2.306,2.336A2.288,2.288,0,0,1-64.79-7.183,2.279,2.279,0,0,1-67.1-9.519Zm6.918,2.41A3.255,3.255,0,0,0-57.1-5.6c2.129,0,3.06-1.079,3.06-2.365,0-1.079-.621-1.73-2-2.217-1.257-.458-1.877-.532-1.877-1.094,0-.4.34-.665.9-.665a1.723,1.723,0,0,1,1.449.621l.99-1.05a2.871,2.871,0,0,0-2.41-1.094,2.349,2.349,0,0,0-2.631,2.232c0,1.138.739,1.7,1.833,2.1,1.153.414,2.04.562,2.04,1.183,0,.384-.31.813-1.33.813A2.259,2.259,0,0,1-59.04-8.07Zm13.393,1.316h1.848v-4.376h4.006v-1.67h-4.006v-2.587h4.39V-16.1h-6.238Zm7.509,0h1.759V-9.711a1.867,1.867,0,0,1,2.01-2,3.565,3.565,0,0,1,.739.074v-1.715a3.772,3.772,0,0,0-.532-.044,2.308,2.308,0,0,0-2.217,1.257v-1.109h-1.759Zm4.952-3.725a3.964,3.964,0,0,0,4.065,3.947,3.973,3.973,0,0,0,4.065-3.947,3.973,3.973,0,0,0-4.065-3.947A3.964,3.964,0,0,0-34.323-9.519Zm1.759,0a2.279,2.279,0,0,1,2.306-2.336,2.288,2.288,0,0,1,2.306,2.336,2.288,2.288,0,0,1-2.306,2.336A2.279,2.279,0,0,1-32.564-9.519Zm7.613,3.725h1.759V-10.08a1.551,1.551,0,0,1,1.449-1.73c.857,0,1.33.65,1.33,1.656v4.361h1.759V-10.08a1.541,1.541,0,0,1,1.434-1.73c.828,0,1.3.65,1.3,1.656v2.483c0,1.552.813,1.951,1.744,1.951a2.722,2.722,0,0,0,.769-.089V-7.3a1.172,1.172,0,0,1-.251.03c-.414,0-.5-.237-.5-.783v-2.35c0-1.833-.916-2.986-2.543-2.986a2.455,2.455,0,0,0-2.395,1.3,2.1,2.1,0,0,0-2.1-1.3,2.1,2.1,0,0,0-2,1.212v-1.064h-1.759Zm18.966,0h1.744v-6.963L-.708-7.331l3.5-5.44v6.977H4.54V-16.1H2.973l-3.681,5.78L-4.4-16.1H-5.985ZM6.151-9.459A3.682,3.682,0,0,0,10.1-5.616a4.032,4.032,0,0,0,3.134-1.33L12.168-7.981a2.569,2.569,0,0,1-2.01.857A2.039,2.039,0,0,1,7.91-9.075h5.795c.03-.3.03-.621.03-.621a3.6,3.6,0,0,0-3.681-3.755,3.74,3.74,0,0,0-3.9,3.932Zm1.8-.857a1.99,1.99,0,0,1,2.1-1.626,1.774,1.774,0,0,1,1.877,1.626ZM13.72-5.793h1.907l1.892-2.631,1.892,2.631h1.907L18.495-9.74l2.572-3.5H19.13l-1.611,2.232-1.626-2.232H13.971l2.572,3.518Zm8.5-1.744c0,1.493.783,1.892,1.715,1.892a2.466,2.466,0,0,0,.887-.118V-7.257a1.7,1.7,0,0,1-.31.03c-.4,0-.517-.237-.517-.783v-5.233H22.22Zm.887-6.578a1.054,1.054,0,0,0,1.05-1.05,1.054,1.054,0,0,0-1.05-1.05,1.057,1.057,0,0,0-1.064,1.05A1.057,1.057,0,0,0,23.107-14.116Zm2.306,4.583a3.933,3.933,0,0,0,4.05,3.947,3.917,3.917,0,0,0,2.986-1.286L31.355-8.011a2.5,2.5,0,0,1-1.892.813,2.258,2.258,0,0,1-2.291-2.336,2.258,2.258,0,0,1,2.291-2.336,2.5,2.5,0,0,1,1.892.813l1.094-1.138a3.917,3.917,0,0,0-2.986-1.286A3.933,3.933,0,0,0,25.413-9.533Zm7.672.015A3.964,3.964,0,0,0,37.15-5.572a3.973,3.973,0,0,0,4.065-3.947,3.973,3.973,0,0,0-4.065-3.947A3.964,3.964,0,0,0,33.085-9.519Zm1.759,0a2.279,2.279,0,0,1,2.306-2.336,2.288,2.288,0,0,1,2.306,2.336A2.288,2.288,0,0,1,37.15-7.183,2.279,2.279,0,0,1,34.844-9.519Z" transform="translate(317.21 83.72)" fill="#e50e63"/>
  </g>
</svg>
