<svg xmlns="http://www.w3.org/2000/svg" width="160.634" height="100.974" viewBox="0 0 160.634 100.974">
  <g id="Group_899" data-name="Group 899" transform="translate(-103.779 -267.882)">
    <g id="Group_302" data-name="Group 302" transform="translate(103.779 267.882)">
      <g id="Group_300" data-name="Group 300" transform="translate(9.339 0)">
        <path id="Path_723" data-name="Path 723" d="M166.617,286.492h-.363l-11.931,23.183,5.789,1.278,2.227-4.936h8.037l2.257,4.934,6.048-1.274-11.995-23.053Zm2.3,14.8H163.9l2.508-4.822Z" transform="translate(-154.323 -283.053)" fill="#00863f"/>
        <path id="Path_724" data-name="Path 724" d="M269.2,309.97l-2.912,8.117-2.943-8.12-5.283.924L266,328.758h.381l8.236-17.9Z" transform="translate(-238.89 -302.192)" fill="#00863f"/>
        <path id="Path_725" data-name="Path 725" d="M348.234,312.479a9.38,9.38,0,1,0,9.433,9.381A9.4,9.4,0,0,0,348.234,312.479Zm0,13.433a4.055,4.055,0,1,1,3.947-4.052A4.039,4.039,0,0,1,348.234,325.912Z" transform="translate(-304.74 -304.239)" fill="#00863f"/>
        <path id="Path_726" data-name="Path 726" d="M458.827,317.217a4.177,4.177,0,0,1-3.184.412c-2.261-.56-3.41-2.772-2.795-5.379a3.777,3.777,0,0,1,4.632-2.849,4.72,4.72,0,0,1,2.724,1.845l.159.229,3.759-3.371-.131-.179a9.578,9.578,0,0,0-5.322-3.536,9.066,9.066,0,0,0-7.053.932,9.757,9.757,0,0,0-4.248,6.232c-1.352,5.731,2.593,9.979,6.992,11.067a10.275,10.275,0,0,0,2.423.275,7.537,7.537,0,0,0,4.1-1.009l.165-.114-1.982-4.689Z" transform="translate(-393.002 -297.383)" fill="#00863f"/>
        <path id="Path_727" data-name="Path 727" d="M541.094,317.16a15.06,15.06,0,0,0-4.6.783l-.137.05-.8,5.2.418-.2a10.035,10.035,0,0,1,4.217-1.01c2,0,2.955.392,2.955,2.62v.083a6.716,6.716,0,0,0-3.5-1.1,5.815,5.815,0,0,0-6.137,5.88c0,3.975,2.29,6.445,5.976,6.445a4.844,4.844,0,0,0,3.916-1.545v1.31l4.846-.593V323.406C548.254,319.378,545.711,317.16,541.094,317.16Zm2.026,12.245a2.25,2.25,0,1,1-2.219-1.986A2.023,2.023,0,0,1,543.12,329.405Z" transform="translate(-463.451 -308.055)" fill="#00863f"/>
        <path id="Path_728" data-name="Path 728" d="M623.922,270.4l2.364,6.458a6.681,6.681,0,0,0-4.4.169c-4.531,1.739-6.633,7.053-4.786,12.1a9.152,9.152,0,0,0,4.793,5.265,8.264,8.264,0,0,0,6.43.2,5.465,5.465,0,0,0,3.533-3.445l.68,1.86,4.635-2.408-8.317-22.717Zm3.2,19.143a3.475,3.475,0,0,1-2.7-.109,4.383,4.383,0,0,1-2.26-2.489,4.089,4.089,0,0,1,2.074-5.306,3.466,3.466,0,0,1,2.7.108,4.382,4.382,0,0,1,2.26,2.49A4.091,4.091,0,0,1,627.12,289.545Z" transform="translate(-531.048 -267.882)" fill="#00863f"/>
        <path id="Path_729" data-name="Path 729" d="M738.263,310.491a9.379,9.379,0,1,0,9.433,9.379A9.4,9.4,0,0,0,738.263,310.491Zm3.947,9.379a3.933,3.933,0,1,1-3.947-4.053A4.056,4.056,0,0,1,742.21,319.87Z" transform="translate(-622.701 -302.618)" fill="#00863f"/>
        <path id="Path_730" data-name="Path 730" d="M837.363,319.755c-1.518-.327-2.377-.555-2.377-1.425,0-.685.91-.787,1.452-.787a4.155,4.155,0,0,1,2.47.912l.177.142,3.078-3.24-.174-.17a8.415,8.415,0,0,0-5.647-2.469c-4.79,0-6.489,3.149-6.489,5.845,0,4.6,3.321,5.331,5.518,5.816,1.383.3,2.165.509,2.165,1.151,0,.277,0,1.12-1.993,1.12a4.621,4.621,0,0,1-3.442-1.492l-.206-.215-2.834,4,.181.145a9.3,9.3,0,0,0,6.717,2.387c3.335,0,6.711-2.064,6.711-6.011C842.668,320.9,839.6,320.237,837.363,319.755Z" transform="translate(-704.385 -304.433)" fill="#00863f"/>
      </g>
      <path id="Path_731" data-name="Path 731" d="M133.565,423.1l.1,0,10.272,32.533-8.4,1.429-3.525-15.518-.1,0-8.28,15.929-.1,0-8.709-15.29-.1,0-2.306,15.672-8.639-.84,8-33.164.1,0,11.445,19.507Z" transform="translate(-103.779 -394.417)" fill="#f15d2a"/>
      <path id="Path_732" data-name="Path 732" d="M324.929,487.4v-.852a6.212,6.212,0,0,1,5.98-6.157,4.712,4.712,0,0,1,3.411.993Zm18.634-5.682a14.378,14.378,0,0,0-12.7-7.482,13.429,13.429,0,0,0-13.345,13.307c0,5.871,5.585,12.643,13.692,12.643a20.712,20.712,0,0,0,11.566-3.788l-4.053-5.683a12.308,12.308,0,0,1-7.365,2.842,5.214,5.214,0,0,1-4.153-1.753Z" transform="translate(-278.022 -436.109)" fill="#f15d2a"/>
      <path id="Path_733" data-name="Path 733" d="M463.4,468.846,456.58,457.1l8.342-.684,3.916,7.643,5.98-6.646,7.484,2.854-9.649,9.612,6.986,12.15-8.4,1.155-2.491-7.832-7.932,6.781-7.543-3.24Z" transform="translate(-388.695 -421.576)" fill="#f15d2a"/>
      <path id="Path_734" data-name="Path 734" d="M622.119,462.837l-7.684.894-.67-23.119,7.685-.894Zm.3-29.1-4.814,4.5-5.686-3.546,4.71-4.592Z" transform="translate(-518.024 -400.126)" fill="#f15d2a"/>
      <path id="Path_735" data-name="Path 735" d="M698.732,463.042a7.947,7.947,0,0,0-4.995-1.7,6.057,6.057,0,0,0-6.327,5.872c0,3.787,2.472,6.82,6.477,6.82a7.2,7.2,0,0,0,4.891-1.752l4.2,5.255c-2.026,2.084-6.425,3.127-9.243,3.127-8.747,0-14.037-6.015-14.037-12.55,0-8,5.833-13.4,14.037-13.4a14.921,14.921,0,0,1,9,2.984Z" transform="translate(-573.285 -420.187)" fill="#f15d2a"/>
      <path id="Path_736" data-name="Path 736" d="M811.429,480.85a6.459,6.459,0,1,1,6.424,6.11,6.337,6.337,0,0,1-6.424-6.11m6.424,12.975c7.515,0,14.187-5.445,14.187-12.975s-6.672-12.977-14.187-12.977c-7.462,0-14.134,5.446-14.134,12.977s6.672,12.975,14.134,12.975" transform="translate(-674.388 -430.92)" fill="#f15d2a"/>
      <g id="Group_301" data-name="Group 301" transform="translate(34.083 27.979)">
        <path id="Path_737" data-name="Path 737" d="M293.08,423.119l-2.543.594-.532-2.328,3.329-.777-.608-1.3-4.492,1.051,2.064,9.023,1.417-.511-.865-3.784,2.543-.6Z" transform="translate(-288.234 -419.305)" fill="#f15d2a"/>
        <path id="Path_738" data-name="Path 738" d="M321.139,433.011a1.47,1.47,0,0,1,.2.007l.2.033.453-1.217h-.355a2.356,2.356,0,0,0-1.983.742l-.05-.842-1.3.515.4,6.553,1.3-.513-.19-3.139a2.356,2.356,0,0,1,.539-1.758A1.1,1.1,0,0,1,321.139,433.011Z" transform="translate(-312.749 -429.437)" fill="#f15d2a"/>
        <path id="Path_739" data-name="Path 739" d="M340.122,437.3a3.453,3.453,0,0,0-4.083-2.481,3.359,3.359,0,0,0-2.123,1.51,3.267,3.267,0,0,0-.406,2.5,3.448,3.448,0,0,0,3.339,2.566,3.358,3.358,0,0,0,3.273-4.094Zm-1.555,1.828a2.021,2.021,0,0,1-1.274.912,2.1,2.1,0,0,1-2.486-1.517,2.033,2.033,0,0,1,1.53-2.434,2.1,2.1,0,0,1,2.486,1.516A2.02,2.02,0,0,1,338.568,439.129Z" transform="translate(-325.07 -431.885)" fill="#f15d2a"/>
        <path id="Path_740" data-name="Path 740" d="M379.814,429.635a2.477,2.477,0,0,0-1.812.385,2.158,2.158,0,0,0-1.675-1.009,2.531,2.531,0,0,0-1.4.222l.061-.5-1.367.019-.633,5.543,1.308.164.4-3.353a1.1,1.1,0,0,1,.392-.793,1.3,1.3,0,0,1,1.018-.15.886.886,0,0,1,.841.979l-.581,4.006,1.3.185.529-3.508a1.238,1.238,0,0,1,.457-.87,1.254,1.254,0,0,1,.988-.129.9.9,0,0,1,.788,1.055l-.741,4.186,1.288.2.779-4.251C381.982,430.831,381.238,429.915,379.814,429.635Z" transform="translate(-357.331 -426.995)" fill="#f15d2a"/>
      </g>
    </g>
    <g id="Group_303" data-name="Group 303" transform="translate(120.026 340.109)">
      <path id="Path_741" data-name="Path 741" d="M191.706,664.962H203.16l-5.943-5.727Z" transform="translate(-191.706 -659.15)" fill="#00863f"/>
      <path id="Path_742" data-name="Path 742" d="M325.052,664.669h11.455l-5.944-5.727Z" transform="translate(-300.413 -658.911)" fill="#00863f"/>
      <path id="Path_743" data-name="Path 743" d="M263.813,664.518l-5.957-5.715,11.455-.025Z" transform="translate(-245.633 -658.778)" fill="#f15d2a"/>
      <path id="Path_744" data-name="Path 744" d="M457.874,664.669H469.33l-5.944-5.727Z" transform="translate(-408.693 -658.911)" fill="#00863f"/>
      <path id="Path_745" data-name="Path 745" d="M396.636,664.518l-5.957-5.715,11.455-.025Z" transform="translate(-353.914 -658.778)" fill="#f15d2a"/>
      <path id="Path_746" data-name="Path 746" d="M590.7,664.669h11.455l-5.944-5.727Z" transform="translate(-516.974 -658.911)" fill="#00863f"/>
      <path id="Path_747" data-name="Path 747" d="M529.458,664.518,523.5,658.8l11.455-.025Z" transform="translate(-462.194 -658.778)" fill="#f15d2a"/>
      <path id="Path_748" data-name="Path 748" d="M723.52,664.669h11.455l-5.944-5.727Z" transform="translate(-625.254 -658.911)" fill="#009e4f"/>
      <path id="Path_749" data-name="Path 749" d="M662.281,664.518l-5.956-5.715,11.455-.025Z" transform="translate(-570.475 -658.778)" fill="#f15d2a"/>
      <path id="Path_750" data-name="Path 750" d="M723.52,664.669h11.455l-5.944-5.727Z" transform="translate(-625.254 -658.911)" fill="#00863f"/>
      <path id="Path_751" data-name="Path 751" d="M795.1,664.518l-5.957-5.715,11.455-.025Z" transform="translate(-678.755 -658.778)" fill="#f15d2a"/>
    </g>
    <g id="Group_306" data-name="Group 306" transform="translate(119.037 352.519)">
      <g id="Group_304" data-name="Group 304" transform="translate(0 2.311)">
        <path id="Path_752" data-name="Path 752" d="M193.321,747.78l-3.614-.16-.656,1.665-2.7-.12,4.135-9.567,2.762.122,3.273,9.9-2.7-.12Zm-.586-1.953-.992-3.29-1.279,3.189Z" transform="translate(-186.354 -739.385)" fill="#562319"/>
        <path id="Path_753" data-name="Path 753" d="M251.21,741.357l-.419,7.585,3.031.167-.118,2.141-5.56-.307.537-9.726Z" transform="translate(-236.728 -740.704)" fill="#562319"/>
        <path id="Path_754" data-name="Path 754" d="M281.886,738.625l1.241,6.392,2.5-6.134,2.01.139,1.628,6.419,2.109-6.16,2.642.183-3.571,9.517-2.577-.178-1.518-5.764-2.3,5.5-2.578-.178-2.228-9.918Z" transform="translate(-262.08 -738.442)" fill="#562319"/>
        <path id="Path_755" data-name="Path 755" d="M365.533,752.753l-3.583.5L361.605,755l-2.674.37,2.339-10.156,2.739-.378,5.006,9.141-2.675.37Zm-.929-1.815-1.57-3.056-.682,3.367Z" transform="translate(-327.043 -743.657)" fill="#562319"/>
        <path id="Path_756" data-name="Path 756" d="M409.773,749.246l-3.44-5.141,3.022.066,1.75,2.7,1.854-2.621,3.022.066L412.3,749.3l-.1,4.675-2.531-.056Z" transform="translate(-365.687 -743.058)" fill="#562319"/>
        <path id="Path_757" data-name="Path 757" d="M463.435,746.024a3.136,3.136,0,0,0-.816-.515,2.2,2.2,0,0,0-.8-.179,1.3,1.3,0,0,0-.806.215.725.725,0,0,0-.323.6.6.6,0,0,0,.146.43,1.349,1.349,0,0,0,.4.3,3.439,3.439,0,0,0,.564.226q.314.1.622.208a3.911,3.911,0,0,1,1.79,1.144,2.727,2.727,0,0,1,.535,1.815,3.508,3.508,0,0,1-.282,1.351,2.826,2.826,0,0,1-.759,1.023,3.4,3.4,0,0,1-1.2.645,4.955,4.955,0,0,1-1.6.2,5.867,5.867,0,0,1-3.4-1.173l1.13-2.017a4.4,4.4,0,0,0,1.107.774,2.7,2.7,0,0,0,1.092.27,1.312,1.312,0,0,0,.93-.264.881.881,0,0,0,.248-1.022.825.825,0,0,0-.252-.3,2.075,2.075,0,0,0-.466-.262q-.288-.123-.7-.274-.488-.166-.955-.364a3.022,3.022,0,0,1-.828-.516,2.309,2.309,0,0,1-.577-.795,2.765,2.765,0,0,1-.2-1.2,3.445,3.445,0,0,1,.268-1.306,2.909,2.909,0,0,1,.694-.993,2.991,2.991,0,0,1,1.073-.629,4,4,0,0,1,1.407-.2,6.125,6.125,0,0,1,1.507.233,6.668,6.668,0,0,1,1.5.621Z" transform="translate(-407.406 -742.333)" fill="#562319"/>
      </g>
      <g id="Group_305" data-name="Group 305" transform="translate(62.058)">
        <path id="Path_758" data-name="Path 758" d="M529.081,732.407l6.692-.643q.105,1.093.1,1.994a7.446,7.446,0,0,1-.185,1.691,6.77,6.77,0,0,1-.8,2,5.879,5.879,0,0,1-1.321,1.524,6.668,6.668,0,0,1-1.751,1.023,7.478,7.478,0,0,1-2.07.493,7.042,7.042,0,0,1-2.812-.263,6.231,6.231,0,0,1-2.284-1.279,6.809,6.809,0,0,1-1.614-2.162,8.446,8.446,0,0,1-.784-2.913,8.534,8.534,0,0,1,.208-2.989,6.531,6.531,0,0,1,1.174-2.421,6.335,6.335,0,0,1,2.034-1.685,7.37,7.37,0,0,1,2.788-.8,6.761,6.761,0,0,1,3.651.587,6.354,6.354,0,0,1,2.7,2.646l-3.065,1.71a3.448,3.448,0,0,0-1.317-1.51,2.813,2.813,0,0,0-1.673-.335,3.126,3.126,0,0,0-1.348.433,3.024,3.024,0,0,0-.976.958,4.21,4.21,0,0,0-.56,1.405,5.773,5.773,0,0,0-.081,1.773,5.86,5.86,0,0,0,.371,1.6,3.755,3.755,0,0,0,.77,1.232,2.938,2.938,0,0,0,1.148.744,3.439,3.439,0,0,0,1.508.159,3.878,3.878,0,0,0,.952-.211,2.48,2.48,0,0,0,.8-.463,2.138,2.138,0,0,0,.545-.742,2.867,2.867,0,0,0,.229-1.052l-2.77.266Z" transform="translate(-522.214 -725.937)" fill="#562319"/>
        <path id="Path_759" data-name="Path 759" d="M604.686,742.8a7.578,7.578,0,0,1,.536-2.864,7.18,7.18,0,0,1,1.486-2.315,6.757,6.757,0,0,1,2.273-1.546,7.85,7.85,0,0,1,5.816,0,6.836,6.836,0,0,1,2.29,1.546,7.113,7.113,0,0,1,1.495,2.315,7.927,7.927,0,0,1,0,5.729,7.108,7.108,0,0,1-1.495,2.315,6.839,6.839,0,0,1-2.29,1.547,7.856,7.856,0,0,1-5.816,0,6.759,6.759,0,0,1-2.273-1.547,7.175,7.175,0,0,1-1.486-2.315A7.576,7.576,0,0,1,604.686,742.8Zm3.543,0a3.853,3.853,0,0,0,1.089,2.727,3.62,3.62,0,0,0,3.984.8,3.681,3.681,0,0,0,1.175-.8,3.771,3.771,0,0,0,.8-1.208,4.075,4.075,0,0,0,0-3.038,3.779,3.779,0,0,0-.8-1.208,3.682,3.682,0,0,0-1.175-.8,3.6,3.6,0,0,0-3.984.8,3.853,3.853,0,0,0-1.089,2.727Z" transform="translate(-589.447 -733.742)" fill="#562319"/>
        <path id="Path_760" data-name="Path 760" d="M690.417,733.306a7.583,7.583,0,0,1,.536-2.865,7.18,7.18,0,0,1,1.487-2.315,6.76,6.76,0,0,1,2.273-1.546,7.852,7.852,0,0,1,5.816,0,6.839,6.839,0,0,1,2.29,1.546,7.106,7.106,0,0,1,1.495,2.315,7.928,7.928,0,0,1,0,5.729,7.1,7.1,0,0,1-1.495,2.315,6.838,6.838,0,0,1-2.29,1.547,7.855,7.855,0,0,1-5.816,0,6.76,6.76,0,0,1-2.273-1.547,7.171,7.171,0,0,1-1.487-2.315A7.58,7.58,0,0,1,690.417,733.306Zm3.543,0a3.851,3.851,0,0,0,1.089,2.727,3.621,3.621,0,0,0,3.984.8,3.681,3.681,0,0,0,1.175-.8,3.77,3.77,0,0,0,.8-1.208,4.072,4.072,0,0,0,0-3.038,3.778,3.778,0,0,0-.8-1.208,3.684,3.684,0,0,0-1.175-.8,3.6,3.6,0,0,0-3.984.8,3.852,3.852,0,0,0-1.089,2.727Z" transform="translate(-659.337 -726.005)" fill="#562319"/>
        <path id="Path_761" data-name="Path 761" d="M780.188,737.59H785.2a5.641,5.641,0,0,1,2.5.568,6.836,6.836,0,0,1,2.039,1.51,7.159,7.159,0,0,1,.017,9.637,6.751,6.751,0,0,1-2.039,1.519,5.673,5.673,0,0,1-2.515.567h-5.012Zm3.388,10.762h.778a4,4,0,0,0,1.573-.293,3.348,3.348,0,0,0,1.167-.806,3.483,3.483,0,0,0,.726-1.217,4.584,4.584,0,0,0,.251-1.547,4.477,4.477,0,0,0-.259-1.538,3.58,3.58,0,0,0-.735-1.226,3.354,3.354,0,0,0-1.167-.805,3.953,3.953,0,0,0-1.555-.293h-.778Z" transform="translate(-732.521 -735.437)" fill="#562319"/>
      </g>
    </g>
    <g id="Group_307" data-name="Group 307" transform="translate(259.834 305.578)">
      <path id="Path_762" data-name="Path 762" d="M949.012,472.286h-.66v-.395h1.756v.395h-.66v2.038h-.436Z" transform="translate(-948.352 -471.891)" fill="#f15d2a"/>
      <path id="Path_763" data-name="Path 763" d="M959.685,471.891h.373l.873,1.365.869-1.365h.37v2.433h-.412v-1.647l-.827,1.284-.834-1.281v1.644h-.412Z" transform="translate(-957.591 -471.891)" fill="#f15d2a"/>
    </g>
  </g>
</svg>
